<svg width="754" height="327" viewBox="0 0 754 327" fill="none" xmlns="http://www.w3.org/2000/svg">
<path d="M52.522 78.5907C52.522 78.5907 50.3637 53.5164 29.0181 40.3914" stroke="#231815" stroke-width="4" stroke-miterlimit="10" stroke-linecap="round" stroke-linejoin="round"/>
<path d="M296.971 190.271C298.736 169.597 277.385 150.893 249.282 148.492C221.178 146.092 196.964 160.905 195.199 181.579C193.433 202.252 214.784 220.957 242.888 223.357C270.991 225.757 295.205 210.944 296.971 190.271Z" fill="white" stroke="#2FBDF0" stroke-miterlimit="10"/>
<path d="M296.913 190.294C293.807 213.017 268.935 225.001 242.834 223.378C208.776 221.255 195.142 181.608 195.142 181.608C195.142 181.608 215.9 215.42 244.369 215.719C285.113 216.14 296.913 190.294 296.913 190.294Z" fill="#B0DFF8"/>
<path d="M271.053 147.56C308.43 121.044 322.921 77.2634 303.42 49.7739C283.918 22.2844 237.809 21.4953 200.432 48.0112C163.055 74.5272 148.563 118.307 168.065 145.797C187.567 173.286 233.676 174.076 271.053 147.56Z" fill="white" stroke="#2FBDF0" stroke-miterlimit="10"/>
<path d="M303.423 49.7263C322.927 77.2133 308.538 121.142 271.058 147.514C212.549 188.688 169.559 151.84 169.559 151.84C169.559 151.84 225.779 166.57 267.435 139.531C321.654 104.341 303.423 49.7263 303.423 49.7263Z" fill="#B0DFF8"/>
<path d="M231.262 248.786C232.868 215.236 220.322 175.519 196.906 138.338C148.336 61.246 76.2453 53.8412 31.9485 87.4433C-12.3571 121.045 -10.3305 198.313 36.4667 260.016C83.2639 321.728 157.127 344.512 201.424 310.91C204.574 308.524 207.434 305.909 210.057 303.137L210.031 303.233C210.031 303.233 255.345 282.274 264.741 261.288C264.741 261.297 242.36 264.367 231.262 248.786Z" fill="#FAC200"/>
<mask id="mask0_0_1" style="mask-type:alpha" maskUnits="userSpaceOnUse" x="0" y="68" width="265" height="259">
<path d="M231.262 248.786C232.868 215.236 220.322 175.519 196.906 138.338C148.336 61.246 76.2453 53.8412 31.9485 87.4433C-12.3571 121.045 -10.3305 198.313 36.4667 260.016C83.2639 321.728 157.127 344.512 201.424 310.91C204.574 308.524 207.434 305.909 210.057 303.137L210.031 303.233C210.031 303.233 255.345 282.274 264.741 261.288C264.741 261.297 242.36 264.367 231.262 248.786Z" fill="#FAC200"/>
</mask>
<g mask="url(#mask0_0_1)">
<path d="M-14.2959 180.783C-14.2959 180.783 144.581 251.462 194.923 115.624L216.497 151.577C216.497 151.577 159.4 270.237 -1.64464 218.983L-14.2959 180.783Z" fill="#231815"/>
<path d="M40.3007 269.842C40.3007 269.842 185.93 311.024 228.683 198.856L235.272 231.827C235.272 231.827 216.497 314.981 65.8751 298.206L40.3007 269.842Z" fill="#231815"/>
</g>
<path d="M94.2395 119.73C97.83 119.73 100.741 116.819 100.741 113.228C100.741 109.638 97.83 106.727 94.2395 106.727C90.6491 106.727 87.7384 109.638 87.7384 113.228C87.7384 116.819 90.6491 119.73 94.2395 119.73Z" fill="black"/>
<path d="M45.1525 119.729C48.7429 119.729 51.6536 116.819 51.6536 113.228C51.6536 109.638 48.7429 106.727 45.1525 106.727C41.562 106.727 38.6514 109.638 38.6514 113.228C38.6514 116.819 41.562 119.729 45.1525 119.729Z" fill="black"/>
<path d="M51.6533 134.872C51.6533 134.872 64.5414 145.357 81.0178 134.872" stroke="black" stroke-width="3" stroke-miterlimit="10" stroke-linecap="round" stroke-linejoin="round"/>
<path d="M106.224 76.3711C106.224 76.3711 118.805 38.3122 96.6348 15.8436" stroke="#231815" stroke-width="4" stroke-miterlimit="10" stroke-linecap="round" stroke-linejoin="round"/>
<path d="M274.489 252.51C274.264 252.51 274.04 252.435 273.85 252.286C273.408 251.932 273.34 251.293 273.686 250.851C273.707 250.824 274.156 250.267 275.06 249.254C275.434 248.832 276.08 248.791 276.501 249.172C276.923 249.546 276.957 250.192 276.583 250.613C275.719 251.579 275.284 252.123 275.277 252.13C275.087 252.381 274.788 252.51 274.489 252.51ZM283.504 243.217C283.232 243.217 282.96 243.108 282.756 242.89C282.375 242.475 282.396 241.83 282.81 241.449C283.293 241 283.803 240.538 284.326 240.062C284.741 239.688 285.387 239.715 285.768 240.137C286.148 240.558 286.114 241.197 285.693 241.578C285.176 242.047 284.673 242.503 284.197 242.945C284 243.121 283.749 243.217 283.504 243.217ZM293.328 234.82C293.029 234.82 292.73 234.684 292.526 234.433C292.179 233.991 292.254 233.352 292.696 232.998C293.226 232.583 293.763 232.162 294.314 231.734C294.756 231.387 295.401 231.468 295.741 231.917C296.088 232.366 296.006 233.005 295.558 233.345C295.014 233.766 294.484 234.181 293.96 234.596C293.777 234.745 293.552 234.82 293.328 234.82ZM303.737 227.151C303.41 227.151 303.091 226.995 302.894 226.709C302.574 226.247 302.69 225.608 303.159 225.288C303.716 224.908 304.28 224.52 304.852 224.139C305.321 223.827 305.953 223.949 306.266 224.418C306.578 224.887 306.456 225.52 305.987 225.832C305.416 226.213 304.858 226.594 304.308 226.975C304.131 227.097 303.934 227.151 303.737 227.151ZM314.608 220.183C314.261 220.183 313.921 220.006 313.731 219.686C313.438 219.204 313.601 218.578 314.084 218.286C314.669 217.939 315.253 217.592 315.845 217.239C316.328 216.953 316.953 217.116 317.239 217.606C317.524 218.089 317.361 218.714 316.872 219C316.28 219.346 315.702 219.686 315.124 220.033C314.968 220.135 314.784 220.183 314.608 220.183ZM325.887 213.873C325.519 213.873 325.166 213.676 324.982 213.323C324.724 212.826 324.914 212.208 325.418 211.949C326.016 211.637 326.628 211.324 327.24 211.011C327.743 210.76 328.355 210.957 328.613 211.46C328.871 211.963 328.667 212.575 328.164 212.833C327.559 213.146 326.954 213.452 326.362 213.765C326.206 213.839 326.043 213.873 325.887 213.873ZM337.506 208.237C337.118 208.237 336.744 208.013 336.574 207.639C336.343 207.129 336.574 206.524 337.084 206.293C337.703 206.014 338.328 205.735 338.954 205.457C339.47 205.232 340.069 205.464 340.3 205.98C340.524 206.497 340.293 207.095 339.776 207.326C339.151 207.598 338.539 207.877 337.92 208.156C337.791 208.21 337.648 208.237 337.506 208.237ZM349.417 203.247C349.009 203.247 348.621 203.002 348.465 202.595C348.261 202.071 348.519 201.48 349.05 201.276C349.682 201.031 350.321 200.786 350.96 200.541C351.49 200.337 352.075 200.609 352.272 201.133C352.469 201.663 352.204 202.248 351.681 202.445C351.042 202.683 350.409 202.928 349.784 203.172C349.662 203.227 349.539 203.247 349.417 203.247ZM361.58 198.91C361.151 198.91 360.75 198.638 360.614 198.209C360.437 197.672 360.73 197.101 361.267 196.924C361.913 196.714 362.565 196.503 363.218 196.292C363.755 196.115 364.326 196.415 364.496 196.952C364.666 197.489 364.374 198.06 363.837 198.23C363.191 198.434 362.545 198.644 361.906 198.855C361.79 198.889 361.682 198.91 361.58 198.91ZM373.946 195.198C373.498 195.198 373.09 194.898 372.961 194.443C372.811 193.899 373.131 193.342 373.674 193.192C374.327 193.015 374.987 192.838 375.653 192.662C376.197 192.519 376.754 192.845 376.897 193.389C377.04 193.933 376.713 194.49 376.17 194.633C375.51 194.81 374.857 194.98 374.205 195.164C374.13 195.184 374.035 195.198 373.946 195.198ZM386.483 192.104C386.014 192.104 385.593 191.778 385.491 191.302C385.368 190.751 385.715 190.207 386.266 190.085C386.932 189.935 387.598 189.793 388.264 189.65C388.808 189.534 389.359 189.881 389.475 190.432C389.59 190.982 389.243 191.526 388.693 191.642C388.026 191.785 387.367 191.927 386.707 192.07C386.633 192.097 386.558 192.104 386.483 192.104ZM399.156 189.609C398.666 189.609 398.238 189.255 398.15 188.759C398.054 188.202 398.428 187.678 398.979 187.583C399.645 187.467 400.318 187.352 400.998 187.243C401.549 187.148 402.079 187.529 402.168 188.086C402.263 188.644 401.882 189.167 401.325 189.256C400.652 189.364 399.985 189.48 399.319 189.595C399.271 189.609 399.21 189.609 399.156 189.609ZM540.928 188.086C540.364 188.086 539.909 187.631 539.909 187.066C539.909 186.502 540.364 186.047 540.928 186.047H542.968C543.532 186.047 543.988 186.502 543.988 187.066C543.988 187.631 543.532 188.086 542.968 188.086H540.928ZM530.051 188.018C530.044 188.018 530.044 188.018 530.037 188.018L527.997 187.991C527.433 187.984 526.984 187.522 526.991 186.958C526.998 186.4 527.453 185.951 528.011 185.951C528.018 185.951 528.018 185.951 528.025 185.951L530.064 185.979C530.628 185.985 531.077 186.448 531.07 187.012C531.064 187.569 530.608 188.018 530.051 188.018ZM553.839 187.998C553.282 187.998 552.826 187.549 552.819 186.992C552.812 186.427 553.261 185.965 553.825 185.958L555.865 185.924C555.872 185.924 555.879 185.924 555.885 185.924C556.443 185.924 556.898 186.373 556.905 186.93C556.912 187.495 556.463 187.957 555.906 187.964L553.866 187.998C553.846 187.998 553.839 187.998 553.839 187.998ZM517.133 187.787C517.126 187.787 517.119 187.787 517.106 187.787L515.066 187.739C514.502 187.726 514.06 187.257 514.074 186.692C514.087 186.128 514.543 185.679 515.121 185.7L517.16 185.747C517.725 185.761 518.166 186.23 518.153 186.794C518.139 187.345 517.684 187.787 517.133 187.787ZM566.743 187.705C566.192 187.705 565.744 187.27 565.723 186.72C565.703 186.155 566.145 185.686 566.709 185.666L568.742 185.598C569.292 185.584 569.775 186.019 569.796 186.584C569.816 187.148 569.374 187.617 568.81 187.637L566.77 187.705C566.77 187.705 566.757 187.705 566.743 187.705ZM411.924 187.705C411.421 187.705 410.979 187.331 410.911 186.815C410.843 186.257 411.237 185.747 411.795 185.673C412.468 185.584 413.147 185.503 413.827 185.421C414.385 185.353 414.895 185.754 414.963 186.312C415.031 186.869 414.63 187.379 414.072 187.447C413.399 187.529 412.726 187.61 412.053 187.699C412.012 187.699 411.965 187.705 411.924 187.705ZM504.222 187.399C504.209 187.399 504.195 187.399 504.188 187.399L502.149 187.325C501.585 187.304 501.149 186.828 501.17 186.271C501.19 185.707 501.666 185.285 502.224 185.292L504.256 185.367C504.821 185.387 505.263 185.856 505.242 186.42C505.222 186.964 504.766 187.399 504.222 187.399ZM579.647 187.189C579.11 187.189 578.654 186.767 578.627 186.217C578.6 185.652 579.035 185.176 579.592 185.149C580.272 185.115 580.952 185.081 581.625 185.047C582.196 185.013 582.665 185.448 582.699 186.013C582.727 186.577 582.298 187.053 581.734 187.087C581.054 187.121 580.374 187.155 579.694 187.189C579.681 187.189 579.66 187.189 579.647 187.189ZM491.319 186.876C491.305 186.876 491.285 186.876 491.271 186.876L489.231 186.781C488.667 186.754 488.232 186.278 488.259 185.713C488.286 185.149 488.735 184.714 489.326 184.741L491.366 184.836C491.93 184.864 492.366 185.339 492.338 185.904C492.311 186.454 491.856 186.876 491.319 186.876ZM592.53 186.42C592 186.42 591.551 186.013 591.517 185.469C591.476 184.904 591.898 184.422 592.462 184.381C593.142 184.333 593.822 184.286 594.495 184.231C595.066 184.191 595.549 184.612 595.59 185.17C595.63 185.734 595.209 186.223 594.651 186.264C593.972 186.312 593.299 186.366 592.612 186.414C592.578 186.42 592.557 186.42 592.53 186.42ZM424.766 186.359C424.243 186.359 423.794 185.958 423.753 185.421C423.706 184.857 424.12 184.367 424.685 184.32C425.365 184.265 426.045 184.211 426.724 184.157C427.282 184.116 427.778 184.53 427.819 185.095C427.86 185.659 427.445 186.149 426.881 186.189C426.201 186.244 425.528 186.298 424.855 186.352C424.821 186.352 424.794 186.359 424.766 186.359ZM478.415 186.23C478.394 186.23 478.374 186.23 478.36 186.23L476.321 186.115C475.756 186.081 475.328 185.598 475.362 185.04C475.396 184.476 475.872 184.055 476.436 184.082L478.469 184.197C479.033 184.231 479.462 184.707 479.435 185.271C479.401 185.809 478.952 186.23 478.415 186.23ZM437.65 185.55C437.106 185.55 436.657 185.122 436.63 184.571C436.61 184.007 437.045 183.531 437.609 183.511C438.289 183.483 438.969 183.456 439.655 183.429C439.669 183.429 439.683 183.429 439.689 183.429C440.233 183.429 440.689 183.864 440.709 184.415C440.73 184.979 440.288 185.448 439.723 185.469C439.044 185.496 438.37 185.523 437.691 185.55C437.677 185.55 437.663 185.55 437.65 185.55ZM465.518 185.543C465.504 185.543 465.49 185.543 465.477 185.543C464.797 185.516 464.117 185.489 463.444 185.469C462.88 185.448 462.438 184.979 462.458 184.415C462.479 183.851 462.968 183.402 463.512 183.429C464.192 183.449 464.872 183.477 465.558 183.504C466.123 183.524 466.558 184 466.537 184.564C466.51 185.115 466.061 185.543 465.518 185.543ZM605.4 185.367C604.883 185.367 604.435 184.972 604.387 184.442C604.333 183.885 604.747 183.381 605.305 183.334C605.985 183.273 606.658 183.205 607.331 183.137C607.902 183.089 608.392 183.49 608.446 184.055C608.5 184.612 608.092 185.115 607.528 185.17C606.855 185.238 606.175 185.299 605.495 185.367C605.461 185.367 605.427 185.367 605.4 185.367ZM452.6 185.265H451.539H450.567C450.003 185.265 449.548 184.809 449.548 184.245C449.548 183.681 450.003 183.225 450.567 183.225H451.546H452.607C453.171 183.225 453.627 183.687 453.627 184.245C453.62 184.809 453.164 185.265 452.6 185.265ZM618.229 183.987C617.719 183.987 617.284 183.606 617.216 183.089C617.148 182.532 617.549 182.022 618.107 181.954C618.787 181.872 619.453 181.791 620.126 181.702C620.69 181.634 621.193 182.029 621.268 182.586C621.336 183.144 620.942 183.653 620.384 183.728C619.711 183.81 619.038 183.898 618.358 183.98C618.318 183.98 618.27 183.987 618.229 183.987ZM631.018 182.226C630.521 182.226 630.086 181.865 630.011 181.362C629.923 180.805 630.304 180.288 630.861 180.2C631.534 180.098 632.207 179.989 632.874 179.887C633.431 179.799 633.955 180.179 634.043 180.737C634.131 181.294 633.751 181.818 633.193 181.906C632.52 182.015 631.854 182.117 631.174 182.226C631.12 182.219 631.072 182.226 631.018 182.226ZM643.738 180.03C643.262 180.03 642.834 179.69 642.738 179.2C642.63 178.65 642.997 178.112 643.547 178.004C644.214 177.875 644.88 177.745 645.539 177.616C646.09 177.507 646.627 177.861 646.736 178.418C646.845 178.969 646.491 179.506 645.934 179.615C645.268 179.751 644.601 179.88 643.928 180.009C643.86 180.023 643.799 180.03 643.738 180.03ZM656.349 177.317C655.887 177.317 655.472 177.004 655.357 176.535C655.228 175.985 655.567 175.434 656.111 175.305C656.771 175.148 657.43 174.985 658.083 174.829C658.634 174.693 659.184 175.026 659.32 175.577C659.456 176.127 659.123 176.678 658.573 176.814C657.913 176.977 657.253 177.14 656.58 177.297C656.512 177.31 656.431 177.317 656.349 177.317ZM668.818 174.006C668.376 174.006 667.968 173.721 667.839 173.272C667.683 172.735 667.989 172.164 668.526 172.007C669.178 171.817 669.824 171.62 670.47 171.423C671.007 171.259 671.578 171.559 671.741 172.102C671.905 172.64 671.599 173.211 671.062 173.374C670.409 173.571 669.756 173.768 669.104 173.959C669.015 173.993 668.913 174.006 668.818 174.006ZM681.076 169.981C680.661 169.981 680.267 169.723 680.117 169.308C679.927 168.778 680.199 168.193 680.722 168.003C681.362 167.772 681.994 167.534 682.626 167.296C683.156 167.099 683.741 167.364 683.938 167.887C684.135 168.418 683.87 169.002 683.347 169.199C682.715 169.437 682.069 169.675 681.423 169.913C681.307 169.961 681.192 169.981 681.076 169.981ZM693.015 165.113C692.627 165.113 692.26 164.889 692.083 164.515C691.852 164.005 692.076 163.4 692.586 163.162C693.205 162.883 693.817 162.598 694.422 162.312C694.932 162.074 695.537 162.292 695.782 162.802C696.02 163.312 695.802 163.917 695.292 164.162C694.68 164.454 694.055 164.74 693.429 165.025C693.3 165.086 693.157 165.113 693.015 165.113ZM704.497 159.253C704.144 159.253 703.797 159.069 703.614 158.743C703.335 158.254 703.505 157.628 703.994 157.349C704.586 157.009 705.164 156.67 705.742 156.33C706.224 156.044 706.85 156.2 707.142 156.683C707.428 157.166 707.271 157.791 706.789 158.084C706.204 158.43 705.612 158.777 705.014 159.117C704.844 159.212 704.667 159.253 704.497 159.253ZM715.321 152.257C715.008 152.257 714.696 152.114 714.498 151.836C714.165 151.38 714.267 150.741 714.723 150.408C715.267 150.007 715.81 149.606 716.341 149.205C716.789 148.865 717.428 148.953 717.768 149.402C718.108 149.85 718.02 150.49 717.571 150.829C717.027 151.244 716.477 151.652 715.919 152.06C715.742 152.196 715.532 152.257 715.321 152.257ZM725.24 144.031C724.968 144.031 724.703 143.922 724.499 143.711C724.112 143.303 724.132 142.657 724.54 142.27C725.03 141.808 725.512 141.338 725.988 140.869C726.389 140.475 727.035 140.482 727.429 140.883C727.824 141.284 727.817 141.93 727.416 142.324C726.926 142.8 726.437 143.283 725.934 143.752C725.743 143.936 725.492 144.031 725.24 144.031ZM733.99 134.567C733.766 134.567 733.541 134.492 733.351 134.343C732.909 133.989 732.841 133.35 733.195 132.908C733.616 132.385 734.031 131.854 734.439 131.324C734.785 130.875 735.425 130.794 735.867 131.141C736.315 131.48 736.397 132.126 736.057 132.568C735.642 133.112 735.214 133.649 734.779 134.186C734.582 134.438 734.282 134.567 733.99 134.567ZM741.394 124.016C741.21 124.016 741.027 123.968 740.863 123.866C740.381 123.574 740.231 122.948 740.524 122.465C740.87 121.888 741.217 121.31 741.557 120.732C741.842 120.242 742.468 120.079 742.951 120.365C743.44 120.65 743.603 121.269 743.318 121.758C742.971 122.35 742.624 122.941 742.264 123.526C742.074 123.846 741.734 124.016 741.394 124.016ZM747.438 112.621C747.295 112.621 747.152 112.594 747.009 112.526C746.5 112.288 746.275 111.683 746.513 111.173C746.799 110.561 747.077 109.942 747.349 109.324C747.574 108.807 748.179 108.576 748.696 108.807C749.212 109.038 749.443 109.636 749.212 110.153C748.933 110.779 748.655 111.404 748.362 112.029C748.192 112.403 747.825 112.621 747.438 112.621ZM752.306 100.662C752.19 100.662 752.074 100.642 751.959 100.601C751.429 100.411 751.157 99.8259 751.34 99.2956C751.571 98.6565 751.796 98.0242 752.013 97.3852C752.197 96.8549 752.775 96.5693 753.312 96.7529C753.842 96.9365 754.128 97.5211 753.944 98.0514C753.72 98.6973 753.496 99.3432 753.264 99.9823C753.115 100.404 752.72 100.662 752.306 100.662Z" fill="black"/>
</svg>
