<svg width="237" height="136" viewBox="0 0 237 136" fill="none" xmlns="http://www.w3.org/2000/svg">
<path d="M57.0767 134.107C41.7521 134.107 28.8384 125.586 24.9385 112.901C21.2448 100.887 26.3874 87.3432 37.7663 78.6444C36.7183 78.3924 35.6875 78.106 34.6911 77.8025C10.536 70.375 -3.98119 47.6115 2.33534 27.047C7.15147 11.3845 23.106 0.858887 42.0441 0.858887C47.2611 0.858887 52.4953 1.65489 57.6092 3.22973C81.7701 10.6515 96.2872 33.4208 89.9707 53.9796C87.7373 61.241 83.1617 67.4716 76.6791 72.0988C86.1968 75.4603 93.1318 82.3152 95.8348 91.1171C100.949 107.759 89.2091 126.187 69.6639 132.195C65.5292 133.466 61.2972 134.107 57.0767 134.107Z" fill="white"/>
<path d="M42.0443 1.718C47.0494 1.718 52.2149 2.4682 57.3574 4.04876C81.106 11.3446 95.3368 33.587 89.1462 53.7277C86.7296 61.5847 81.5584 67.9528 74.7436 72.3738C84.4217 75.2886 92.1355 82.0232 95.0046 91.3692C99.9868 107.587 88.5277 125.5 69.4064 131.376C65.266 132.647 61.1027 133.254 57.0711 133.254C42.4967 133.254 29.6632 125.357 25.7576 112.655C21.8864 100.057 27.9452 86.4385 39.8052 78.2322C38.1845 77.8943 36.5639 77.4877 34.9432 76.9895C11.2004 69.6822 -3.03039 47.4398 3.15442 27.2991C8.00492 11.5221 23.948 1.718 42.0443 1.718ZM42.0443 0C32.7098 0 23.948 2.47392 16.698 7.14689C9.23616 11.9688 3.98479 18.7606 1.51659 26.7951C-4.9431 47.8063 9.83173 71.0566 34.445 78.6216C34.9203 78.7647 35.4013 78.9079 35.8938 79.0453C31.1693 82.9738 27.5443 87.7842 25.3052 93.1272C22.5392 99.7416 22.1269 106.665 24.1255 113.153C28.1342 126.205 41.38 134.966 57.0826 134.966C61.3833 134.966 65.7069 134.308 69.9218 133.014C79.5598 130.053 87.6516 124.074 92.7025 116.171C97.8164 108.183 99.2194 99.1918 96.6596 90.8595C94.0196 82.258 87.4683 75.4719 78.4545 71.8469C84.4217 67.2197 88.6595 61.1838 90.7955 54.2259C93.9395 43.9923 92.21 32.957 85.9278 23.1415C79.7029 13.4176 69.7385 6.0531 57.8614 2.39948C52.6673 0.807462 47.3472 0 42.0443 0Z" fill="#2FBDF0"/>
<path d="M179.17 134.107C174.955 134.107 170.717 133.466 166.582 132.195C147.037 126.187 135.297 107.759 140.411 91.1171C143.114 82.3152 150.049 75.4603 159.567 72.0988C153.085 67.4716 148.503 61.241 146.275 53.9796C139.959 33.4208 154.476 10.6515 178.637 3.22973C183.751 1.66062 188.991 0.858887 194.202 0.858887C213.14 0.858887 229.095 11.3845 233.911 27.047C240.227 47.6058 225.71 70.375 201.549 77.7968C200.553 78.1003 199.522 78.3867 198.474 78.6386C209.853 87.3317 214.996 100.881 211.302 112.896C207.408 125.586 194.494 134.107 179.17 134.107Z" fill="white"/>
<path d="M194.202 1.718C212.298 1.718 228.241 11.5221 233.086 27.2991C239.277 47.4398 225.04 69.6822 201.297 76.978C199.677 77.4762 198.05 77.8828 196.435 78.2207C208.295 86.427 214.354 100.045 210.483 112.644C206.577 125.351 193.738 133.243 179.169 133.243C175.138 133.243 170.98 132.641 166.834 131.364C147.713 125.489 136.248 107.576 141.236 91.3577C144.111 82.0117 151.819 75.2714 161.497 72.3623C154.682 67.9413 149.511 61.5732 147.094 53.7162C140.904 33.5755 155.14 11.3331 178.883 4.03731C184.031 2.4682 189.203 1.718 194.202 1.718ZM194.208 0C188.899 0 183.579 0.807462 178.385 2.4052C166.514 6.0531 156.543 13.4176 150.318 23.1472C144.036 32.9628 142.307 44.0038 145.451 54.2316C147.587 61.1895 151.825 67.2255 157.792 71.8526C148.778 75.4776 142.232 82.2695 139.587 90.8652C137.027 99.1975 138.43 108.188 143.544 116.177C148.6 124.074 156.687 130.059 166.325 133.019C170.539 134.314 174.857 134.972 179.164 134.972C194.866 134.972 208.112 126.205 212.121 113.159C214.114 106.671 213.707 99.7416 210.941 93.133C208.708 87.79 205.077 82.9796 200.352 79.0511C200.839 78.9136 201.326 78.7762 201.801 78.6273C226.415 71.0623 241.189 47.8178 234.73 26.8009C232.262 18.7663 227.01 11.9745 219.543 7.15262C212.304 2.47392 203.542 0 194.208 0Z" fill="#2FBDF0"/>
<path d="M184.69 77.625L151.407 19.9802H84.8401L51.5566 77.625L83.8551 133.563L106.39 94.6561C105.422 93.7112 104.82 92.3883 104.82 90.928C104.82 88.0475 107.157 85.711 110.037 85.711C112.918 85.711 115.254 88.0475 115.254 90.928C115.254 93.8086 112.918 96.1451 110.037 96.1451C109.717 96.1451 109.408 96.1107 109.104 96.0592L86.392 135.275H151.407L184.69 77.625Z" fill="#FAC200"/>
<mask id="mask0_0_1" style="mask-type:alpha" maskUnits="userSpaceOnUse" x="51" y="19" width="134" height="117">
<path d="M184.69 77.625L151.407 19.9802H84.8401L51.5566 77.625L83.8551 133.563L106.39 94.6561C105.422 93.7112 104.82 92.3883 104.82 90.928C104.82 88.0475 107.157 85.711 110.037 85.711C112.918 85.711 115.254 88.0475 115.254 90.928C115.254 93.8086 112.918 96.1451 110.037 96.1451C109.717 96.1451 109.408 96.1107 109.104 96.0592L86.392 135.275H151.407L184.69 77.625Z" fill="#FAC200"/>
</mask>
<g mask="url(#mask0_0_1)">
<path d="M181.776 36.6733H48.7393V50.4975H181.776V36.6733Z" fill="#231815"/>
<path d="M196.115 70.8447H34.6514V84.6689H196.115V70.8447Z" fill="#231815"/>
<path d="M194.552 102.41H33.0879V116.234H194.552V102.41Z" fill="#231815"/>
</g>
</svg>
