<svg width="339" height="327" viewBox="0 0 339 327" fill="none" xmlns="http://www.w3.org/2000/svg">
<path d="M52.522 78.5907C52.522 78.5907 50.3637 53.5164 29.0181 40.3914" stroke="#231815" stroke-width="4" stroke-miterlimit="10" stroke-linecap="round" stroke-linejoin="round"/>
<path d="M296.971 190.271C298.736 169.597 277.385 150.893 249.282 148.492C221.178 146.092 196.964 160.905 195.199 181.579C193.433 202.252 214.784 220.957 242.888 223.357C270.991 225.757 295.205 210.944 296.971 190.271Z" fill="white" stroke="#2FBDF0" stroke-miterlimit="10"/>
<path d="M296.913 190.294C293.807 213.017 268.935 225.001 242.834 223.378C208.776 221.255 195.142 181.608 195.142 181.608C195.142 181.608 215.9 215.42 244.369 215.719C285.113 216.14 296.913 190.294 296.913 190.294Z" fill="#B0DFF8"/>
<path d="M271.053 147.56C308.43 121.044 322.921 77.2634 303.42 49.7739C283.918 22.2844 237.809 21.4953 200.432 48.0112C163.055 74.5272 148.563 118.307 168.065 145.797C187.567 173.286 233.676 174.076 271.053 147.56Z" fill="white" stroke="#2FBDF0" stroke-miterlimit="10"/>
<path d="M303.423 49.7263C322.927 77.2133 308.538 121.142 271.058 147.514C212.549 188.688 169.559 151.84 169.559 151.84C169.559 151.84 225.779 166.57 267.435 139.531C321.654 104.341 303.423 49.7263 303.423 49.7263Z" fill="#B0DFF8"/>
<path d="M231.262 248.786C232.868 215.236 220.322 175.519 196.906 138.338C148.336 61.246 76.2453 53.8412 31.9485 87.4433C-12.3571 121.045 -10.3305 198.313 36.4667 260.016C83.2639 321.728 157.127 344.512 201.424 310.91C204.574 308.524 207.434 305.909 210.057 303.137L210.031 303.233C210.031 303.233 255.345 282.274 264.741 261.288C264.741 261.297 242.36 264.367 231.262 248.786Z" fill="#FAC200"/>
<mask id="mask0_1_1210" style="mask-type:alpha" maskUnits="userSpaceOnUse" x="0" y="68" width="265" height="259">
<path d="M231.262 248.786C232.868 215.236 220.322 175.519 196.906 138.338C148.336 61.246 76.2453 53.8412 31.9485 87.4433C-12.3571 121.045 -10.3305 198.313 36.4667 260.016C83.2639 321.728 157.127 344.512 201.424 310.91C204.574 308.524 207.434 305.909 210.057 303.137L210.031 303.233C210.031 303.233 255.345 282.274 264.741 261.288C264.741 261.297 242.36 264.367 231.262 248.786Z" fill="#FAC200"/>
</mask>
<g mask="url(#mask0_1_1210)">
<path d="M-14.2959 180.784C-14.2959 180.784 144.581 251.462 194.923 115.624L216.497 151.577C216.497 151.577 159.4 270.237 -1.64464 218.983L-14.2959 180.784Z" fill="#231815"/>
<path d="M40.3007 269.842C40.3007 269.842 185.93 311.024 228.683 198.856L235.272 231.827C235.272 231.827 216.497 314.981 65.8751 298.206L40.3007 269.842Z" fill="#231815"/>
</g>
<path d="M94.2395 119.73C97.83 119.73 100.741 116.819 100.741 113.228C100.741 109.638 97.83 106.727 94.2395 106.727C90.6491 106.727 87.7384 109.638 87.7384 113.228C87.7384 116.819 90.6491 119.73 94.2395 119.73Z" fill="black"/>
<path d="M45.1525 119.729C48.7429 119.729 51.6536 116.819 51.6536 113.228C51.6536 109.638 48.7429 106.727 45.1525 106.727C41.562 106.727 38.6514 109.638 38.6514 113.228C38.6514 116.819 41.562 119.729 45.1525 119.729Z" fill="black"/>
<path d="M51.6533 134.872C51.6533 134.872 64.5414 145.357 81.0178 134.872" stroke="black" stroke-width="3" stroke-miterlimit="10" stroke-linecap="round" stroke-linejoin="round"/>
<path d="M106.224 76.3711C106.224 76.3711 118.805 38.3122 96.6348 15.8436" stroke="#231815" stroke-width="4" stroke-miterlimit="10" stroke-linecap="round" stroke-linejoin="round"/>
</svg>
