<svg width="253" height="230" viewBox="0 0 253 230" fill="none" xmlns="http://www.w3.org/2000/svg">
<ellipse cx="139" cy="206.5" rx="114" ry="23.5" fill="#D9D9D9"/>
<path d="M32.8602 89.0757C32.8602 89.0757 20.2587 75.5561 2 77.6514" stroke="#231815" stroke-width="4" stroke-miterlimit="10" stroke-linecap="round" stroke-linejoin="round"/>
<path d="M189.569 104.565C221.388 93.701 240.717 65.8898 232.741 42.447C224.765 19.0042 192.504 8.80708 160.684 19.6712C128.865 30.5353 109.536 58.3465 117.512 81.7893C125.489 105.232 157.749 115.429 189.569 104.565Z" fill="white" stroke="#2FBDF0" stroke-miterlimit="10"/>
<path d="M232.747 42.4565C240.721 65.9047 221.432 93.8337 189.575 104.575C139.831 121.344 117.299 86.3937 117.299 86.3937C117.299 86.3937 153.759 108.527 188.693 98.192C234.169 84.7432 232.747 42.4565 232.747 42.4565Z" fill="#B0DFF8"/>
<path d="M213.085 106.419C198.823 86.2906 173.601 69.0187 143.249 58.1424C80.3122 35.5903 35.3509 64.0028 24.9955 103.53C14.6337 143.051 50.7842 186.808 105.734 201.262C160.684 215.717 213.632 195.395 223.994 155.874C224.728 153.064 225.197 150.259 225.461 147.461L225.487 147.525C225.487 147.525 242.156 114.858 238.076 98.4628C238.069 98.4628 226.543 110.396 213.085 106.419Z" fill="#FAC200"/>
<mask id="mask0_275_498" style="mask-type:alpha" maskUnits="userSpaceOnUse" x="23" y="50" width="216" height="156">
<path d="M213.085 106.418C198.823 86.2905 173.601 69.0187 143.249 58.1424C80.3122 35.5903 35.3509 64.0028 24.9955 103.53C14.6337 143.051 50.7842 186.808 105.734 201.262C160.684 215.717 213.632 195.395 223.994 155.874C224.728 153.063 225.197 150.259 225.461 147.461L225.487 147.525C225.487 147.525 242.156 114.858 238.076 98.4627C238.069 98.4627 226.543 110.396 213.085 106.418Z" fill="#FAC200"/>
</mask>
<g mask="url(#mask0_275_498)">
<path d="M40.564 178.465C40.564 178.465 164.269 147.274 131.825 45.9057L160.555 56.911C160.555 56.911 181.317 151.42 65.162 194.815L40.564 178.465Z" fill="#231815"/>
<path d="M112.395 205.202C112.395 205.202 215.1 162.966 188.989 78.7216L207.724 94.7943C207.724 94.7943 234.536 151.394 139.999 210.005L112.395 205.202Z" fill="#231815"/>
</g>
<path d="M65.9998 96.2229C65.9998 96.2229 71.3223 95.8683 77.2883 92" stroke="#231815" stroke-width="2" stroke-miterlimit="10" stroke-linecap="round" stroke-linejoin="round"/>
<path d="M41.8503 115.743C41.8503 115.743 45.8711 113.425 48.9997 108" stroke="#231815" stroke-width="2" stroke-miterlimit="10" stroke-linecap="round" stroke-linejoin="round"/>
<path d="M59.949 124.709C59.949 124.709 62.6392 112.801 76.9012 111.389" stroke="black" stroke-width="3" stroke-miterlimit="10" stroke-linecap="round" stroke-linejoin="round"/>
<path d="M57.793 67.4133C57.793 67.4133 47.8302 39.7036 24.854 36.7637" stroke="#231815" stroke-width="4" stroke-miterlimit="10" stroke-linecap="round" stroke-linejoin="round"/>
<path d="M36 132C35.9999 128.775 39.5 121.333 41.5 118C40.0002 124 43.4998 131 42.9998 134C42.2498 138.5 36.0002 138.5 36 132Z" fill="#B0DFF8"/>
</svg>
