<svg width="350" height="391" viewBox="0 0 350 391" fill="none" xmlns="http://www.w3.org/2000/svg">
<path opacity="0.7" d="M279.19 151.261H224.17L196.65 198.37L224.17 245.488H279.19L306.7 198.37L279.19 151.261Z" fill="#FFE100"/>
<path opacity="0.7" d="M17.1904 0H-37.8296L-65.3496 47.1085L-37.8296 94.2268H17.1904L44.7004 47.1085L17.1904 0Z" fill="#FFE100"/>
<path d="M168.19 187.218H81.2601L37.79 261.642L81.2601 336.077H168.19L211.65 261.642L168.19 187.218Z" stroke="#FFE100" stroke-width="2" stroke-miterlimit="10"/>
<path d="M305.19 264.332H218.26L174.79 338.756L218.26 413.19H305.19L348.65 338.756L305.19 264.332Z" stroke="#FFE100" stroke-width="2" stroke-miterlimit="10"/>
<path opacity="0.7" d="M167.19 341.445H80.2601L36.79 415.869L80.2601 490.304H167.19L210.65 415.869L167.19 341.445Z" fill="#FFE100"/>
<path opacity="0.7" d="M30.19 264.332H-56.74L-100.21 338.756L-56.74 413.19H30.19L73.6501 338.756L30.19 264.332Z" fill="#FFE100"/>
<path d="M168.19 32.7112H82.5302L39.7002 105.01L82.5302 177.299H168.19L211.03 105.01L168.19 32.7112Z" stroke="#FFE100" stroke-width="2" stroke-miterlimit="10"/>
<path opacity="0.7" d="M30.9199 106.706H-54.7501L-97.5801 179.005L-54.7501 251.304H30.9199L73.7499 179.005L30.9199 106.706Z" fill="#FFE100"/>
</svg>
