<svg width="992" height="324" viewBox="0 0 992 324" fill="none" xmlns="http://www.w3.org/2000/svg">
<path d="M1004.11 322.375H963.634L943.398 357.536L963.634 392.697H1004.11L1024.34 357.536L1004.11 322.375Z" fill="#964900"/>
<path d="M1004.11 250.917H963.634L943.398 286.077L963.634 321.238H1004.11L1024.34 286.077L1004.11 250.917Z" fill="#964900"/>
<path d="M879.451 250.917H838.978L818.741 286.077L838.978 321.238H879.451L899.687 286.077L879.451 250.917Z" fill="#964900"/>
<path d="M879.451 322.375H838.978L818.741 357.536L838.978 392.697H879.451L899.687 357.536L879.451 322.375Z" fill="#964900"/>
<path d="M941.779 286.646H901.306L881.07 321.807L901.306 356.967H941.779L962.015 321.807L941.779 286.646Z" fill="#964900"/>
<path d="M941.779 215.187H901.306L881.07 250.348L901.306 285.509H941.779L962.015 250.348L941.779 215.187Z" fill="#964900"/>
<path d="M941.779 142.917H901.306L881.07 178.078L901.306 213.238H941.779L962.015 178.078L941.779 142.917Z" fill="#964900"/>
<path d="M941.779 71.4584H901.306L881.07 106.619L901.306 141.78H941.779L962.015 106.619L941.779 71.4584Z" fill="#964900"/>
<path d="M817.123 71.4584H776.65L756.413 106.619L776.65 141.78H817.123L837.359 106.619L817.123 71.4584Z" fill="#964900"/>
<path d="M817.123 142.917H776.65L756.413 178.078L776.65 213.238H817.123L837.359 178.078L817.123 142.917Z" fill="#964900"/>
<path d="M879.451 107.188H838.978L818.741 142.348L838.978 177.509H879.451L899.687 142.348L879.451 107.188Z" fill="#964900"/>
<path d="M879.451 35.7292H838.978L818.741 70.89L838.978 106.051H879.451L899.687 70.89L879.451 35.7292Z" fill="#964900"/>
<path d="M879.451 178.646H838.978L818.741 213.807L838.978 248.968H879.451L899.687 213.807L879.451 178.646Z" fill="#964900"/>
<path d="M1004.11 107.188H963.634L943.398 142.348L963.634 177.509H1004.11L1024.34 142.348L1004.11 107.188Z" fill="#964900"/>
<path d="M1004.11 178.646H963.634L943.398 213.807L963.634 248.968H1004.11L1024.34 213.807L1004.11 178.646Z" fill="#964900"/>
<path d="M817.123 286.646H776.65L756.413 321.807L776.65 356.967H817.123L837.359 321.807L817.123 286.646Z" fill="#964900"/>
<path d="M817.123 215.187H776.65L756.413 250.348L776.65 285.509H817.123L837.359 250.348L817.123 215.187Z" fill="#964900"/>
<path d="M692.466 215.187H651.993L631.757 250.348L651.993 285.509H692.466L712.703 250.348L692.466 215.187Z" fill="#964900"/>
<path d="M692.466 286.646H651.993L631.757 321.807L651.993 356.967H692.466L712.703 321.807L692.466 286.646Z" fill="#964900"/>
<path d="M754.794 250.917H714.322L694.085 286.077L714.322 321.238H754.794L775.031 286.077L754.794 250.917Z" fill="#964900"/>
<path d="M754.794 179.458H714.322L694.085 214.619L714.322 249.78H754.794L775.031 214.619L754.794 179.458Z" fill="#964900"/>
<path d="M754.794 322.375H714.322L694.085 357.536L714.322 392.697H754.794L775.031 357.536L754.794 322.375Z" fill="#964900"/>
<path d="M630.138 250.917H589.665L569.429 286.077L589.665 321.238H630.138L650.375 286.077L630.138 250.917Z" fill="#964900"/>
<path d="M630.138 179.458H589.665L569.429 214.619L589.665 249.78H630.138L650.375 214.619L630.138 179.458Z" fill="#964900"/>
<path d="M505.482 179.458H465.009L444.773 214.619L465.009 249.78H505.482L525.718 214.619L505.482 179.458Z" fill="#964900"/>
<path d="M505.482 250.917H465.009L444.773 286.077L465.009 321.238H505.482L525.718 286.077L505.482 250.917Z" fill="#964900"/>
<path d="M567.81 215.187H527.337L507.101 250.348L527.337 285.509H567.81L588.046 250.348L567.81 215.187Z" fill="#964900"/>
<path d="M567.81 143.729H527.337L507.101 178.89L527.337 214.051H567.81L588.046 178.89L567.81 143.729Z" fill="#964900"/>
<path d="M567.81 286.646H527.337L507.101 321.807L527.337 356.967H567.81L588.046 321.807L567.81 286.646Z" fill="#964900"/>
<path d="M754.795 107.188H714.322L694.085 142.348L714.322 177.509H754.795L775.031 142.348L754.795 107.188Z" fill="#964900"/>
<path d="M754.795 35.7292H714.322L694.085 70.89L714.322 106.051H754.795L775.031 70.89L754.795 35.7292Z" fill="#964900"/>
<path d="M630.138 35.7292H589.665L569.429 70.89L589.665 106.051H630.138L650.375 70.89L630.138 35.7292Z" fill="#964900"/>
<path d="M630.138 107.188H589.665L569.429 142.348L589.665 177.509H630.138L650.375 142.348L630.138 107.188Z" fill="#964900"/>
<path d="M692.467 71.4584H651.994L631.757 106.619L651.994 141.78H692.467L712.703 106.619L692.467 71.4584Z" fill="#964900"/>
<path d="M692.466 0H651.994L631.757 35.1608L651.994 70.3216H692.466L712.703 35.1608L692.466 0Z" fill="#964900"/>
<path d="M692.467 142.917H651.994L631.757 178.078L651.994 213.239H692.467L712.703 178.078L692.467 142.917Z" fill="#964900"/>
<path d="M505.482 323.187H465.009L444.773 358.348L465.009 393.509H505.482L525.718 358.348L505.482 323.187Z" fill="#964900"/>
<path d="M380.825 323.187H340.353L320.116 358.348L340.353 393.509H380.825L401.062 358.348L380.825 323.187Z" fill="#964900"/>
<path d="M443.154 287.458H402.681L382.444 322.619L402.681 357.779H443.154L463.39 322.619L443.154 287.458Z" fill="#964900"/>
<path d="M318.498 287.458H278.025L257.788 322.619L278.025 357.779H318.498L338.734 322.619L318.498 287.458Z" fill="#964900"/>
<path d="M193.841 287.458H153.368L133.132 322.619L153.368 357.779H193.841L214.078 322.619L193.841 287.458Z" fill="#964900"/>
<path d="M256.169 323.187H215.697L195.46 358.348L215.697 393.509H256.169L276.406 358.348L256.169 323.187Z" fill="#964900"/>
<path d="M256.169 251.729H215.697L195.46 286.889L215.697 322.05H256.169L276.406 286.889L256.169 251.729Z" fill="#964900"/>
<path d="M443.154 215.187H402.681L382.444 250.348L402.681 285.509H443.154L463.39 250.348L443.154 215.187Z" fill="#964900"/>
<path d="M443.154 143.729H402.681L382.444 178.89L402.681 214.051H443.154L463.39 178.89L443.154 143.729Z" fill="#964900"/>
<path d="M318.498 143.729H278.025L257.788 178.89L278.025 214.051H318.498L338.734 178.89L318.498 143.729Z" fill="#964900"/>
<path d="M318.498 215.187H278.025L257.788 250.348L278.025 285.509H318.498L338.734 250.348L318.498 215.187Z" fill="#964900"/>
<path d="M380.825 179.458H340.353L320.116 214.619L340.353 249.78H380.825L401.062 214.619L380.825 179.458Z" fill="#964900"/>
<path d="M380.826 108H340.353L320.116 143.16L340.353 178.321H380.826L401.062 143.16L380.826 108Z" fill="#964900"/>
<path d="M380.825 250.917H340.353L320.116 286.077L340.353 321.238H380.825L401.062 286.077L380.825 250.917Z" fill="#964900"/>
<path d="M630.138 322.375H589.665L569.429 357.536L589.665 392.697H630.138L650.375 357.536L630.138 322.375Z" fill="#964900"/>
<path d="M997.631 255.789H957.159L936.922 290.95L957.159 326.11H997.631L1017.87 290.95L997.631 255.789Z" fill="#FAC200" stroke="white" stroke-width="3" stroke-miterlimit="10"/>
<path d="M872.975 255.789H832.502L812.266 290.95L832.502 326.11H872.975L893.212 290.95L872.975 255.789Z" fill="#FFE100" stroke="white" stroke-width="3" stroke-miterlimit="10"/>
<path d="M935.303 291.518H894.83L874.594 326.679L894.83 361.84H935.303L955.54 326.679L935.303 291.518Z" fill="#FAC200" stroke="white" stroke-width="3" stroke-miterlimit="10"/>
<path d="M935.303 220.059H894.83L874.594 255.22L894.83 290.381H935.303L955.54 255.22L935.303 220.059Z" fill="#FFE100" stroke="white" stroke-width="3" stroke-miterlimit="10"/>
<path d="M935.303 147.789H894.83L874.594 182.95L894.83 218.111H935.303L955.54 182.95L935.303 147.789Z" fill="#FFE100" stroke="white" stroke-width="3" stroke-miterlimit="10"/>
<path d="M935.303 76.3306H894.83L874.594 111.491L894.83 146.652H935.303L955.54 111.491L935.303 76.3306Z" fill="#FAC200" stroke="white" stroke-width="3" stroke-miterlimit="10"/>
<path d="M810.647 76.3306H770.174L749.938 111.491L770.174 146.652H810.647L830.883 111.491L810.647 76.3306Z" fill="#FAC200" stroke="white" stroke-width="3" stroke-miterlimit="10"/>
<path d="M810.647 147.789H770.174L749.938 182.95L770.174 218.111H810.647L830.883 182.95L810.647 147.789Z" fill="#FFE100" stroke="white" stroke-width="3" stroke-miterlimit="10"/>
<path d="M872.975 112.06H832.502L812.266 147.221L832.502 182.381H872.975L893.212 147.221L872.975 112.06Z" fill="#FAC200" stroke="white" stroke-width="3" stroke-miterlimit="10"/>
<path d="M872.975 40.6014H832.502L812.266 75.7622L832.502 110.923H872.975L893.212 75.7622L872.975 40.6014Z" fill="#FAC200" stroke="white" stroke-width="3" stroke-miterlimit="10"/>
<path d="M872.975 183.518H832.502L812.266 218.679L832.502 253.84H872.975L893.212 218.679L872.975 183.518Z" fill="#FAC200" stroke="white" stroke-width="3" stroke-miterlimit="10"/>
<path d="M997.631 112.06H957.159L936.922 147.221L957.159 182.381H997.631L1017.87 147.221L997.631 112.06Z" fill="#FAC200" stroke="white" stroke-width="3" stroke-miterlimit="10"/>
<path d="M997.631 183.518H957.159L936.922 218.679L957.159 253.84H997.631L1017.87 218.679L997.631 183.518Z" fill="#FAC200" stroke="white" stroke-width="3" stroke-miterlimit="10"/>
<path d="M810.647 291.518H770.174L749.938 326.679L770.174 361.84H810.647L830.883 326.679L810.647 291.518Z" fill="#FAC200" stroke="white" stroke-width="3" stroke-miterlimit="10"/>
<path d="M810.647 220.059H770.174L749.938 255.22L770.174 290.381H810.647L830.883 255.22L810.647 220.059Z" fill="#FAC200" stroke="white" stroke-width="3" stroke-miterlimit="10"/>
<path d="M685.991 220.059H645.518L625.281 255.22L645.518 290.381H685.991L706.227 255.22L685.991 220.059Z" fill="#FAC200" stroke="white" stroke-width="3" stroke-miterlimit="10"/>
<path d="M685.991 291.518H645.518L625.281 326.679L645.518 361.84H685.991L706.227 326.679L685.991 291.518Z" fill="#FFE100" stroke="white" stroke-width="3" stroke-miterlimit="10"/>
<path d="M748.319 255.789H707.846L687.61 290.95L707.846 326.11H748.319L768.555 290.95L748.319 255.789Z" fill="#FAC200" stroke="white" stroke-width="3" stroke-miterlimit="10"/>
<path d="M748.319 184.33H707.846L687.61 219.491L707.846 254.652H748.319L768.555 219.491L748.319 184.33Z" fill="#FFE100" stroke="white" stroke-width="3" stroke-miterlimit="10"/>
<path d="M623.662 255.789H583.19L562.953 290.95L583.19 326.11H623.662L643.899 290.95L623.662 255.789Z" fill="#FAC200" stroke="white" stroke-width="3" stroke-miterlimit="10"/>
<path d="M623.662 184.33H583.19L562.953 219.491L583.19 254.652H623.662L643.899 219.491L623.662 184.33Z" fill="#FAC200" stroke="white" stroke-width="3" stroke-miterlimit="10"/>
<path d="M499.006 184.33H458.533L438.297 219.491L458.533 254.652H499.006L519.243 219.491L499.006 184.33Z" fill="#FAC200" stroke="white" stroke-width="3" stroke-miterlimit="10"/>
<path d="M499.006 255.789H458.533L438.297 290.95L458.533 326.11H499.006L519.243 290.95L499.006 255.789Z" fill="#FAC200" stroke="white" stroke-width="3" stroke-miterlimit="10"/>
<path d="M561.334 220.059H520.862L500.625 255.22L520.862 290.381H561.334L581.571 255.22L561.334 220.059Z" fill="#FAC200" stroke="white" stroke-width="3" stroke-miterlimit="10"/>
<path d="M561.334 148.601H520.862L500.625 183.762L520.862 218.923H561.334L581.571 183.762L561.334 148.601Z" fill="#FFE100" stroke="white" stroke-width="3" stroke-miterlimit="10"/>
<path d="M561.334 291.518H520.862L500.625 326.679L520.862 361.84H561.334L581.571 326.679L561.334 291.518Z" fill="#FAC200" stroke="white" stroke-width="3" stroke-miterlimit="10"/>
<path d="M748.319 112.06H707.846L687.61 147.221L707.846 182.381H748.319L768.555 147.221L748.319 112.06Z" fill="#FAC200" stroke="white" stroke-width="3" stroke-miterlimit="10"/>
<path d="M748.319 40.6014H707.846L687.61 75.7622L707.846 110.923H748.319L768.555 75.7622L748.319 40.6014Z" fill="#FAC200" stroke="white" stroke-width="3" stroke-miterlimit="10"/>
<path d="M623.663 40.6014H583.19L562.953 75.7622L583.19 110.923H623.663L643.899 75.7622L623.663 40.6014Z" fill="#FAC200" stroke="white" stroke-width="3" stroke-miterlimit="10"/>
<path d="M623.663 112.06H583.19L562.953 147.221L583.19 182.381H623.663L643.899 147.221L623.663 112.06Z" fill="#FAC200" stroke="white" stroke-width="3" stroke-miterlimit="10"/>
<path d="M685.991 76.3306H645.518L625.281 111.491L645.518 146.652H685.991L706.227 111.491L685.991 76.3306Z" fill="#FAC200" stroke="white" stroke-width="3" stroke-miterlimit="10"/>
<path d="M685.991 4.87215H645.518L625.281 40.0329L645.518 75.1937H685.991L706.227 40.0329L685.991 4.87215Z" fill="#FFE100" stroke="white" stroke-width="3" stroke-miterlimit="10"/>
<path d="M685.991 147.789H645.518L625.281 182.95L645.518 218.111H685.991L706.227 182.95L685.991 147.789Z" fill="#FAC200" stroke="white" stroke-width="3" stroke-miterlimit="10"/>
<path d="M436.678 292.33H396.205L375.969 327.491L396.205 362.652H436.678L456.914 327.491L436.678 292.33Z" fill="#FAC200" stroke="white" stroke-width="3" stroke-miterlimit="10"/>
<path d="M312.022 292.33H271.549L251.313 327.491L271.549 362.652H312.022L332.258 327.491L312.022 292.33Z" fill="#FAC200" stroke="white" stroke-width="3" stroke-miterlimit="10"/>
<path d="M187.366 292.33H146.893L126.656 327.491L146.893 362.652H187.366L207.602 327.491L187.366 292.33Z" fill="#FAC200" stroke="white" stroke-width="3" stroke-miterlimit="10"/>
<path d="M249.694 256.601H209.221L188.984 291.762L209.221 326.922H249.694L269.93 291.762L249.694 256.601Z" fill="#FFE100" stroke="white" stroke-width="3" stroke-miterlimit="10"/>
<path d="M436.678 220.059H396.205L375.969 255.22L396.205 290.381H436.678L456.914 255.22L436.678 220.059Z" fill="#FAC200" stroke="white" stroke-width="3" stroke-miterlimit="10"/>
<path d="M436.678 148.601H396.205L375.969 183.762L396.205 218.923H436.678L456.914 183.762L436.678 148.601Z" fill="#FAC200" stroke="white" stroke-width="3" stroke-miterlimit="10"/>
<path d="M312.022 148.601H271.549L251.313 183.762L271.549 218.923H312.022L332.258 183.762L312.022 148.601Z" fill="#FAC200" stroke="white" stroke-width="3" stroke-miterlimit="10"/>
<path d="M312.022 220.059H271.549L251.313 255.22L271.549 290.381H312.022L332.258 255.22L312.022 220.059Z" fill="#FAC200" stroke="white" stroke-width="3" stroke-miterlimit="10"/>
<path d="M374.35 184.33H333.877L313.641 219.491L333.877 254.652H374.35L394.586 219.491L374.35 184.33Z" fill="#FAC200" stroke="white" stroke-width="3" stroke-miterlimit="10"/>
<path d="M374.35 112.872H333.877L313.641 148.033L333.877 183.193H374.35L394.586 148.033L374.35 112.872Z" fill="#FAC200" stroke="white" stroke-width="3" stroke-miterlimit="10"/>
<path d="M374.35 255.789H333.877L313.641 290.949L333.877 326.11H374.35L394.586 290.949L374.35 255.789Z" fill="#FFE100" stroke="white" stroke-width="3" stroke-miterlimit="10"/>
</svg>
