<svg width="350" height="391" viewBox="0 0 350 391" fill="none" xmlns="http://www.w3.org/2000/svg">
<path opacity="0.7" d="M279.19 151.261H224.17L196.65 198.37L224.17 245.488H279.19L306.7 198.37L279.19 151.261Z" fill="#FFE100"/>
<path opacity="0.7" d="M17.1902 0H-37.8298L-65.3499 47.1085L-37.8298 94.2268H17.1902L44.7002 47.1085L17.1902 0Z" fill="#FFE100"/>
<path d="M168.19 187.218H81.2602L37.7902 261.642L81.2602 336.077H168.19L211.65 261.642L168.19 187.218Z" stroke="#FFE100" stroke-width="2" stroke-miterlimit="10"/>
<path d="M305.19 264.331H218.26L174.79 338.756L218.26 413.19H305.19L348.65 338.756L305.19 264.331Z" stroke="#FFE100" stroke-width="2" stroke-miterlimit="10"/>
<path opacity="0.7" d="M167.19 341.445H80.2602L36.7902 415.869L80.2602 490.304H167.19L210.65 415.869L167.19 341.445Z" fill="#FFE100"/>
<path opacity="0.7" d="M30.1902 264.331H-56.7398L-100.21 338.756L-56.7398 413.19H30.1902L73.6502 338.756L30.1902 264.331Z" fill="#FFE100"/>
<path d="M168.19 32.7111H82.5302L39.7002 105.01L82.5302 177.299H168.19L211.03 105.01L168.19 32.7111Z" stroke="#FFE100" stroke-width="2" stroke-miterlimit="10"/>
<path opacity="0.7" d="M30.9201 106.706H-54.7498L-97.5798 179.005L-54.7498 251.304H30.9201L73.7502 179.005L30.9201 106.706Z" fill="#FFE100"/>
<g clip-path="url(#clip0_0_1)">
<path d="M72.1292 269.827C72.0637 270.142 72.0637 270.519 71.8657 270.771C71.7347 271.023 71.5047 271.148 71.2105 271.086L71.3081 261.02C71.3416 257.497 71.9982 254.101 73.572 251.112C73.869 250.545 74.3276 249.822 75.0484 249.507C75.3774 249.476 75.705 249.822 75.5405 250.074C73.8021 252.557 73.0813 255.452 72.6868 258.471C72.1947 262.247 72.4568 266.02 72.1292 269.827ZM88.9917 266.494C88.7617 264.26 88.7617 262.025 88.8272 259.792C88.8927 257.623 88.9583 255.452 88.7952 253.219C88.7952 253.219 88.7952 253.186 88.7617 253.186C87.3509 255.262 86.1381 257.433 84.9225 259.603C84.3328 260.673 83.7752 261.711 83.1506 262.75C82.5261 263.788 81.8737 264.826 81.1181 265.832C80.856 266.053 80.4949 266.117 80.1673 266.022C79.6418 265.896 79.5107 265.424 79.3462 265.014C78.6241 263.191 77.8365 259.982 77.0823 257.276C76.8202 256.301 76.5902 255.421 76.3602 254.666C76.1301 253.911 75.935 253.313 75.7705 252.935C75.705 252.715 75.606 252.495 75.507 252.275C75.376 252.054 75.3104 251.835 75.3104 251.52C75.4415 251.236 75.8025 251.236 75.967 251.363C76.3922 251.615 76.6222 252.024 76.7867 252.402C77.4433 254.101 77.9341 255.893 78.3941 257.687C79.0172 260.046 79.5093 262.436 80.4935 264.669C80.4935 264.764 80.6915 264.795 80.7236 264.764C81.2157 264.072 81.8723 263.096 82.5289 262.091C83.5465 260.486 85.0228 257.687 86.4671 255.358C87.1223 254.32 88.14 252.872 88.5986 252.088C88.7966 251.772 89.1562 251.867 89.4518 251.993C89.6497 252.213 89.7808 252.433 89.7808 252.748C90.0108 255.044 90.0108 257.466 89.9773 259.857C89.9453 262.468 89.8463 265.11 90.0108 267.658C89.9453 267.878 89.6818 268.035 89.4866 267.973C89.0572 267.562 89.0572 267.027 88.9917 266.494Z" fill="#964900" stroke="#964900" stroke-miterlimit="10"/>
<path d="M93.7469 278.099C92.5661 278.067 91.2529 277.753 90.3998 276.904C90.1042 276.589 89.8756 276.212 89.6456 275.552L90.2032 275.898C90.5322 276.118 90.8263 276.402 91.1874 276.59C91.9416 276.999 92.8937 277.157 93.7469 277.188C95.5201 277.22 96.9964 276.495 98.3738 275.426C99.029 274.923 99.6856 274.136 100.08 273.507C100.505 272.753 100.769 271.903 100.638 270.96C100.179 267.437 99.9156 263.788 99.8501 260.107C98.2748 262.593 96.5029 264.951 94.568 267.279C94.2724 267.656 93.7803 267.782 93.3538 267.688C92.9606 267.624 92.7641 267.312 92.5996 267.059C92.4685 265.864 92.4685 264.7 92.5341 263.536C92.5996 262.373 92.7306 261.207 92.7641 260.045C92.8296 259.856 92.7641 259.729 92.6651 259.542L92.5006 259.289C92.4351 259.227 92.403 259.132 92.3361 259.038C92.173 258.597 92.633 258.346 92.9927 258.409C93.3217 258.534 93.5503 258.785 93.7469 259.101C93.9114 259.761 93.9114 260.327 93.8793 260.924C93.8459 261.932 93.6158 262.906 93.6493 263.975C93.6493 264.415 93.6158 264.92 93.6158 265.36C93.6158 265.831 93.6158 266.273 93.6814 266.713C93.6814 266.744 93.8459 266.776 93.9114 266.713C96.2743 264.196 98.1758 261.459 99.9491 258.66C100.146 258.502 100.374 258.375 100.703 258.533C100.9 258.691 100.999 258.91 101.032 259.13C100.834 263.156 101.229 267.402 101.786 271.367C101.786 272.248 101.457 273.098 101.032 273.853C99.5866 276.37 96.733 278.194 93.7469 278.099Z" fill="#964900" stroke="#964900" stroke-miterlimit="10"/>
<path d="M127.143 261.114C126.652 264.102 126.323 267.185 126.355 270.299C126.29 270.519 126.125 270.645 125.93 270.676C125.601 270.708 125.307 270.519 125.241 270.205C124.684 267.469 123.896 264.827 122.944 262.278C121.797 259.101 119.761 255.106 117.925 253.062C117.695 252.81 117.564 252.653 117.499 252.495C115.465 257.027 115.137 264.637 115.597 269.324C115.629 269.608 115.236 269.701 115.073 269.576C114.81 269.45 114.68 269.168 114.581 268.885L114.383 268.003C114.252 264.228 114.286 260.486 114.974 256.93C115.433 254.697 116.22 252.181 117.5 250.198C118.123 250.167 118.256 250.953 118.123 251.267L117.828 251.738C118.058 251.77 118.286 251.958 118.517 252.147C120.223 253.72 122.913 258.847 123.931 261.647C124.487 263.156 125.046 264.666 125.473 266.24C125.669 263.441 126.128 259.602 126.981 256.52C127.572 254.444 128.36 252.62 129.475 251.079C129.868 250.544 130.526 249.821 131.248 249.633C131.478 249.758 131.511 250.072 131.379 250.23C130.526 251.079 129.87 252.085 129.346 253.281C128.293 255.61 127.734 257.37 127.143 261.114Z" fill="#964900" stroke="#964900" stroke-miterlimit="10"/>
<path d="M140.395 266.399C140.165 265.738 140.002 265.046 139.837 264.354C138.952 266.494 137.771 268.695 135.705 270.268C135.049 270.771 134.031 270.96 133.309 270.521C132.489 270.049 132.129 269.294 131.997 268.444C131.866 267.374 132.063 266.147 132.326 265.235C132.983 262.845 134.36 260.642 136.491 258.912C136.788 258.755 137.083 258.597 137.378 258.505C137.707 258.41 138.035 258.41 138.362 258.568C139.15 258.914 139.708 259.574 140.003 260.329C140.332 260.769 140.332 261.429 140.396 261.965C140.529 262.186 140.594 262.374 140.692 262.658C140.824 263.79 141.085 264.796 141.414 265.835C141.972 267.503 142.301 268.793 143.644 270.05C143.678 270.458 143.154 270.396 142.858 270.334C141.412 269.324 140.954 267.909 140.395 266.399ZM138.1 259.603C137.771 259.509 137.509 259.603 137.247 259.761C136.229 260.421 135.312 261.616 134.72 262.592C133.997 263.85 133.507 265.202 133.211 266.618C133.178 267.09 133.112 267.594 133.144 268.064C133.178 268.536 133.309 268.946 133.571 269.291C133.866 269.574 134.391 269.637 134.784 269.512C137.113 267.781 138.458 265.391 139.312 262.937C139.377 262.591 139.411 262.214 139.641 261.898C139.542 261.583 139.312 261.018 139.116 260.673C138.854 260.233 138.525 259.824 138.1 259.603Z" fill="#964900" stroke="#964900" stroke-miterlimit="10"/>
<path d="M160.932 269.953C160.867 269.827 160.834 269.701 160.801 269.606C160.211 266.492 160.309 263.127 159.588 260.075C159.555 259.918 159.358 259.698 159.227 259.698C158.965 259.666 158.768 259.792 158.572 259.982C157.784 260.8 156.931 262.278 156.407 263.284C155.226 265.518 154.373 267.909 153.52 270.267C153.454 270.455 153.256 270.582 153.061 270.582C152.863 270.582 152.635 270.455 152.601 270.142C152.274 267.027 151.88 264.133 150.829 261.302C150.698 260.987 150.534 260.674 150.206 260.484C149.944 260.359 149.583 260.389 149.321 260.484C148.73 260.893 148.434 261.523 148.172 262.12C146.993 264.731 146.271 267.499 145.68 270.3C145.581 270.551 145.22 270.584 145.057 270.394C144.366 269.199 144.301 267.721 144.334 266.274C144.366 263.788 144.924 261.398 145.777 259.165C145.876 258.882 146.073 258.473 146.4 258.284C146.63 258.284 146.892 258.442 146.794 258.692C146.465 260.045 146.105 261.365 145.809 262.75C145.514 264.102 145.351 265.486 145.416 266.964C145.416 267.217 145.416 267.468 145.448 267.688C145.841 266.241 146.17 264.763 146.662 263.347C147.088 262.183 147.647 261.051 148.401 259.982C148.992 259.384 149.879 259.289 150.665 259.51C151.256 259.856 151.65 260.328 151.879 260.832C152.272 261.65 152.831 263.946 153.026 264.951C153.191 265.927 153.322 266.901 153.453 267.909C154.142 266.178 154.862 264.417 155.715 262.781C156.241 261.805 157.356 259.666 158.276 258.974C158.637 258.723 158.997 258.534 159.424 258.597C160.376 258.787 160.604 259.542 160.735 260.328C160.801 260.643 160.834 260.988 160.932 261.273C161.359 264.197 161.391 267.249 161.72 270.175C161.72 270.364 161.424 270.458 161.295 270.395C161.097 270.267 160.998 270.11 160.932 269.953Z" fill="#964900" stroke="#964900" stroke-miterlimit="10"/>
<path d="M171.33 269.512C170.444 270.172 169.461 270.644 168.443 270.739C167.36 270.832 166.312 270.486 165.622 269.794C165.229 269.386 164.967 269.038 164.802 268.694C164.638 268.41 164.539 268.096 164.441 267.781C164.177 267.971 163.818 268.158 163.588 268.22C163.227 268.315 162.931 268.315 162.505 268.127C162.372 268 162.241 267.718 162.406 267.467C162.602 267.372 162.799 267.309 162.995 267.277C163.193 267.214 163.356 267.182 163.487 267.119C163.717 267.024 164.045 266.804 164.307 266.679C164.21 265.264 164.21 263.754 164.537 262.338C164.767 261.238 165.293 260.137 166.08 259.287C166.801 258.721 168.18 258.343 169.065 258.626C170.212 259.003 171.066 260.167 171.527 261.174C171.658 261.834 171.362 262.369 171.001 262.778C170.706 263.093 170.346 263.439 169.984 263.754L169.493 264.193C169.361 264.32 169.196 264.478 169.1 264.602C168.576 265.074 167.953 265.546 167.328 265.986C166.703 266.425 166.082 266.836 165.523 267.181C165.687 268.061 165.981 268.944 166.835 269.414C167.622 269.854 168.442 269.791 169.196 269.509C169.918 269.256 170.607 268.849 171.132 268.409C172.117 267.591 172.936 266.678 173.329 265.609C173.494 265.451 173.788 265.766 173.788 265.893C173.756 266.491 173.363 267.245 173.034 267.749C172.577 268.412 171.987 269.009 171.33 269.512ZM166.802 260.169C166.278 260.83 165.949 261.584 165.719 262.434C165.39 263.534 165.358 264.731 165.424 265.926C166.047 265.518 166.704 265.077 167.359 264.605C168.081 264.102 168.736 263.536 169.294 262.969C169.72 262.56 170.345 262.119 170.441 261.491C170.145 260.861 169.687 260.201 169.064 259.791C168.411 259.571 167.328 259.698 166.802 260.169Z" fill="#964900" stroke="#964900" stroke-miterlimit="10"/>
</g>
<g clip-path="url(#clip1_0_1)">
<path d="M87.4502 110.174C87.2879 110.304 87.0461 110.368 86.7767 110.368C86.4796 110.368 86.2102 110.24 85.9943 110.046C85.7249 109.821 85.5626 109.563 85.4814 109.24C85.319 108.724 85.1843 108.046 85.0772 107.207C84.9702 106.369 84.9425 105.466 84.9425 104.433C84.9425 103.594 84.9425 102.66 84.9702 101.66C84.9702 100.691 84.9702 99.6913 85.0237 98.6604C85.0513 97.6274 85.1049 96.5965 85.1861 95.5325C85.2396 94.4995 85.3208 93.4996 85.4278 92.4687C84.9425 93.5967 84.5384 94.6628 84.1878 95.6296C83.8096 96.6296 83.4866 97.5634 83.2172 98.4662C82.9202 99.3711 82.6507 100.241 82.4348 101.08L81.6801 103.596L81.3831 104.565C81.2484 105.017 81.1137 105.435 80.9789 105.887C80.8166 106.34 80.6819 106.759 80.5472 107.145C80.3848 107.532 80.2778 107.792 80.169 107.92C79.8719 108.373 79.523 108.598 79.1448 108.598C78.8218 108.598 78.5507 108.47 78.3348 108.145C77.5248 107.178 76.8254 105.951 76.2313 104.501C75.5836 103.082 75.0448 101.565 74.5854 100.016C74.423 99.5632 74.2883 99.0798 74.1812 98.6294C74.0724 98.177 73.9654 97.6625 73.8583 97.1461C73.7495 96.6626 73.6424 96.1461 73.5353 95.5656C73.4265 95.0181 73.3194 94.4045 73.2124 93.6959L73.05 95.1483L72.9429 96.4374L72.8894 97.7266V99.243C72.8894 101.018 72.8894 102.567 72.9429 103.92C72.9965 105.276 73.05 106.276 73.1588 106.953C73.1588 107.145 73.1865 107.275 73.24 107.406L73.3488 107.858C73.4023 108.05 73.43 108.213 73.4835 108.375C73.537 108.567 73.5647 108.73 73.5647 108.924C73.5647 109.149 73.43 109.344 73.1605 109.538C72.8635 109.73 72.5405 109.796 72.1899 109.796C71.7582 109.796 71.4611 109.571 71.354 109.118C71.3005 108.957 71.247 108.635 71.2193 108.185C71.1658 107.765 71.1105 107.185 71.0846 106.41C71.057 105.99 71.057 105.538 71.057 105.088L71 103.755V101.627C71 99.369 71.0535 97.2721 71.2159 95.3363C71.3506 93.4025 71.5388 91.725 71.8083 90.3036C71.8083 90.2065 71.8359 90.0784 71.8359 89.8842V89.4338C71.8359 89.1755 71.8894 88.9504 72.0241 88.7562C72.1329 88.595 72.4283 88.4979 72.86 88.4979C73.183 88.4979 73.5612 88.595 73.9654 88.7562C74.3436 88.9504 74.5577 89.2396 74.6665 89.597C74.7477 90.1135 74.8013 90.6279 74.8548 91.1444C74.8824 91.6609 74.936 92.1774 74.9895 92.6608C75.1795 94.1132 75.4213 95.5325 75.7183 96.8878C75.9877 98.2431 76.3642 99.5984 76.8513 100.888C77.0948 101.629 77.3901 102.371 77.7148 103.082C78.0378 103.823 78.416 104.631 78.9013 105.534C79.1448 104.889 79.4142 104.179 79.6836 103.34C79.9254 102.501 80.2225 101.532 80.6007 100.373C80.9237 99.2761 81.3019 98.115 81.6784 96.8878C82.029 95.7267 82.4072 94.5966 82.8113 93.5327C83.1896 92.5018 83.5937 91.5969 83.9978 90.7911C84.3761 90.0164 84.7526 89.4359 85.1308 89.1136C85.2931 88.9855 85.509 88.8884 85.8043 88.8243C86.0738 88.7913 86.3432 88.7582 86.6143 88.7582C86.8026 88.7582 87.0185 88.8243 87.2343 88.8884C87.4502 88.9855 87.5573 89.1466 87.5849 89.3718C87.5849 89.566 87.5573 89.7582 87.5314 89.9214L87.4243 90.4709C87.3155 91.2787 87.2084 92.0844 87.1273 92.8902C87.0461 93.698 86.9926 94.5698 86.9649 95.4726C86.9114 96.4395 86.8561 97.4725 86.8561 98.5695C86.8026 99.6665 86.8026 100.925 86.8026 102.344C86.8026 102.989 86.8026 103.666 86.8561 104.375C86.8561 105.086 86.9097 105.794 86.9649 106.439C86.9926 107.019 87.0461 107.472 87.1273 107.825C87.2084 108.211 87.3155 108.536 87.4243 108.825C87.4243 108.889 87.452 108.986 87.5055 109.05C87.5055 109.147 87.5331 109.244 87.5867 109.339C87.6143 109.403 87.6402 109.47 87.6678 109.534C87.6955 109.631 87.7214 109.695 87.7214 109.759C87.7196 109.918 87.6108 110.046 87.4502 110.174Z" fill="#964900"/>
<path d="M101.308 99.7884C101.255 100.499 101.227 101.241 101.227 101.949C101.227 103.499 101.199 105.046 101.173 106.563C101.12 108.11 101.12 109.627 101.12 111.174C101.12 112.11 101.039 112.949 100.878 113.723C100.716 114.465 100.446 115.11 100.096 115.659C99.7175 116.176 99.2322 116.562 98.6398 116.884C98.0198 117.143 97.2651 117.304 96.4016 117.304C96.1857 117.304 95.9163 117.273 95.5657 117.273L94.4604 117.207C94.0562 117.143 93.678 117.112 93.3551 117.045C93.0045 116.979 92.7627 116.884 92.6539 116.787C92.3309 116.562 92.115 116.335 91.9803 116.141C91.8456 115.915 91.7921 115.657 91.7921 115.366C91.7921 115.077 91.9009 114.849 92.115 114.688C92.3309 114.496 92.5744 114.366 92.8438 114.333C93.4103 114.591 93.9492 114.816 94.4897 114.946C95.0027 115.075 95.5674 115.139 96.2151 115.139C97.3204 115.139 98.1027 114.783 98.5604 114.108C98.9922 113.43 99.2081 112.527 99.2081 111.397C99.2081 110.945 99.2081 110.463 99.2357 109.881C99.2357 109.3 99.2633 108.72 99.3169 108.106L99.3704 106.236L99.4239 104.526C98.8039 106.526 98.1027 107.978 97.348 108.817C96.5657 109.689 95.6227 110.106 94.5433 110.106C93.7333 110.106 93.115 109.914 92.628 109.525C92.1409 109.137 91.7644 108.653 91.495 108.042C91.198 107.428 91.0097 106.753 90.9026 105.978C90.7938 105.203 90.7679 104.462 90.7679 103.687C90.7679 102.912 90.7679 102.106 90.7956 101.332V98.9496C90.7956 98.5633 90.7679 98.1749 90.742 97.7886C90.6885 97.4022 90.6885 97.0138 90.6885 96.6275C90.6885 96.5614 90.742 96.4663 90.8508 96.3692C90.9579 96.3052 91.1202 96.2412 91.2826 96.175L91.7679 96.047C91.9026 96.047 92.0097 96.016 92.0908 96.016C92.3603 96.016 92.6038 96.1441 92.8456 96.3713C93.0891 96.6296 93.2238 96.8878 93.2238 97.177C93.2238 97.3712 93.1962 97.5324 93.1962 97.7266C93.1685 97.9208 93.1426 98.146 93.115 98.3732C93.0615 98.6315 93.0338 98.8567 93.0338 99.0509L92.9526 99.6955C92.8991 100.406 92.8715 101.148 92.8715 101.921C92.8438 102.695 92.8438 103.47 92.8438 104.212C92.8438 104.598 92.8715 104.986 92.9526 105.406C93.0062 105.858 93.0874 106.245 93.2497 106.598C93.3844 106.984 93.6003 107.275 93.8697 107.534C94.1132 107.792 94.4362 107.92 94.8144 107.92C95.2185 107.92 95.5968 107.759 95.9733 107.404C96.3239 107.081 96.6745 106.629 96.9974 106.081C97.2945 105.565 97.5639 104.953 97.8074 104.243C98.0492 103.596 98.2668 102.92 98.4551 102.243C98.6433 101.598 98.8056 100.985 98.9404 100.404C99.0474 99.8235 99.1286 99.3732 99.1821 98.9848C99.2357 98.5323 99.291 98.0819 99.3169 97.5985C99.3169 97.1461 99.3704 96.6626 99.4792 96.2122C99.5327 95.8899 99.6415 95.6317 99.8022 95.4706C99.9645 95.3404 100.206 95.2454 100.531 95.2454C100.773 95.2454 101.044 95.3404 101.313 95.5346C101.557 95.7267 101.692 95.9209 101.692 96.1482C101.692 96.4064 101.664 96.6316 101.638 96.8899L101.557 97.6316C101.443 98.3361 101.362 99.0777 101.308 99.7884Z" fill="#964900"/>
<path d="M127.193 90.3036C127.166 90.4007 127.112 90.5618 127.059 90.756L126.951 91.2395C126.898 91.4006 126.87 91.5617 126.87 91.7229C126.817 92.4005 126.817 93.0782 126.817 93.7868V95.8507C126.789 97.0758 126.789 98.303 126.789 99.4951V104.398L126.736 105.85L126.573 107.236C126.466 107.689 126.357 108.075 126.25 108.397C126.062 108.881 125.739 109.106 125.28 109.106C125.117 109.106 124.957 109.075 124.82 108.978C124.389 108.72 123.931 108.364 123.499 107.914C123.014 107.494 122.554 107.011 122.097 106.495C121.639 105.978 121.207 105.4 120.803 104.817C120.371 104.236 120.021 103.625 119.698 103.044C118.834 101.528 118.08 99.8835 117.46 98.1088C116.84 96.3672 116.273 94.4004 115.734 92.2373C115.625 93.9789 115.572 95.4313 115.572 96.5924C115.544 97.7844 115.544 98.9145 115.544 99.9806C115.544 101.336 115.544 102.433 115.572 103.272C115.572 104.174 115.572 104.819 115.6 105.205C115.6 105.528 115.627 105.852 115.681 106.174L115.789 106.691C115.789 106.852 115.817 107.013 115.871 107.174L115.979 107.788C116.007 108.013 116.033 108.24 116.033 108.465C116.033 108.788 115.871 109.015 115.575 109.143C115.252 109.335 114.981 109.401 114.712 109.401C114.442 109.401 114.252 109.337 114.145 109.209C114.011 109.081 113.904 108.887 113.848 108.66C113.795 108.468 113.739 108.273 113.739 108.046C113.712 107.854 113.712 107.627 113.712 107.433C113.658 106.402 113.631 104.691 113.631 102.272C113.631 100.272 113.658 98.3051 113.739 96.3362C113.821 94.4025 113.981 92.4336 114.199 90.4337C114.199 90.3036 114.227 90.1424 114.227 89.9813C114.199 89.8532 114.199 89.692 114.199 89.5288C114.199 89.1735 114.306 88.8842 114.549 88.626C114.765 88.4339 115.007 88.3037 115.332 88.3037C116.087 88.3037 116.627 88.69 116.922 89.4007C117.057 89.7561 117.166 90.1114 117.273 90.4337L117.542 91.5287C117.812 92.4315 118.081 93.2703 118.325 94.014C118.541 94.7888 118.729 95.4664 118.945 96.078C119.133 96.6915 119.323 97.206 119.484 97.6584C119.646 98.1109 119.781 98.4972 119.915 98.7864C120.482 100.142 121.13 101.4 121.884 102.625C122.613 103.85 123.584 105.013 124.796 106.11C124.824 105.4 124.85 104.819 124.85 104.303C124.85 103.786 124.877 103.303 124.877 102.786C124.877 101.27 124.85 99.7554 124.85 98.2369C124.796 96.7535 124.796 95.2702 124.796 93.7537V92.6257C124.796 92.3034 124.768 91.915 124.768 91.4977C124.768 91.3035 124.741 91.0783 124.741 90.8201V90.1424C124.741 89.723 124.848 89.3677 125.064 89.0475C125.252 88.7562 125.577 88.595 126.034 88.595C126.278 88.595 126.547 88.7562 126.844 89.0144C127.114 89.3036 127.249 89.5949 127.249 89.8532C127.247 89.9503 127.219 90.1114 127.193 90.3036Z" fill="#964900"/>
<path d="M141.645 110.24C141.457 110.498 141.16 110.66 140.782 110.66C140.296 110.66 139.972 110.498 139.784 110.24C139.649 110.079 139.568 109.885 139.542 109.66C139.488 109.467 139.488 109.046 139.488 108.468C138.733 109.017 137.951 109.37 137.169 109.532C136.386 109.693 135.685 109.757 135.093 109.757C134.338 109.757 133.665 109.693 133.07 109.532C132.425 109.37 131.884 109.145 131.426 108.821C130.941 108.499 130.59 108.11 130.321 107.66C130.052 107.24 129.943 106.757 129.943 106.176C129.943 105.563 130.105 105.015 130.428 104.499C130.751 104.046 131.183 103.627 131.723 103.274C132.236 102.918 132.829 102.627 133.53 102.369C134.203 102.111 134.905 101.916 135.633 101.724C136.335 101.596 137.063 101.466 137.765 101.369C138.438 101.303 139.058 101.239 139.625 101.175C139.571 100.722 139.49 100.272 139.328 99.8194C139.165 99.367 138.977 98.9806 138.708 98.6253C138.438 98.2699 138.115 97.9807 137.737 97.7225C137.359 97.5303 136.929 97.4002 136.443 97.4002C136.065 97.4002 135.715 97.4663 135.392 97.5944C135.041 97.7225 134.718 97.8526 134.447 98.0468C134.15 98.239 133.88 98.4332 133.665 98.6274C133.421 98.8216 133.233 99.0137 133.07 99.1769C132.908 99.3711 132.801 99.5323 132.692 99.6603L132.288 100.144C132.019 100.402 131.722 100.53 131.425 100.53C131.128 100.53 130.886 100.4 130.697 100.144C130.482 99.8855 130.4 99.5942 130.4 99.2719C130.4 98.8195 130.589 98.3361 131.02 97.8526C131.425 97.4002 131.912 97.0118 132.504 96.6275C132.827 96.4333 133.178 96.2412 133.556 96.078C133.934 95.9478 134.338 95.8197 134.715 95.6916C135.093 95.5945 135.442 95.5305 135.792 95.4664C136.115 95.4024 136.412 95.3693 136.656 95.3693C137.466 95.3693 138.193 95.5615 138.841 95.9189C139.461 96.3052 139.999 96.8217 140.459 97.4022C140.891 98.0489 141.214 98.7245 141.457 99.4992C141.673 100.274 141.808 101.049 141.808 101.821C141.808 102.594 141.808 103.369 141.861 104.113C141.861 104.887 141.889 105.66 141.889 106.435C141.889 106.887 141.889 107.306 141.916 107.693V108.918C141.915 109.56 141.806 109.982 141.645 110.24ZM137.492 103.111C136.628 103.206 135.82 103.369 135.065 103.594C134.31 103.819 133.663 104.11 133.124 104.499C132.585 104.918 132.314 105.433 132.314 106.046C132.314 106.369 132.395 106.66 132.611 106.918C132.799 107.176 133.043 107.402 133.338 107.596C133.608 107.79 133.931 107.951 134.255 108.048C134.578 108.145 134.903 108.178 135.2 108.178C135.982 108.178 136.791 107.984 137.601 107.598C138.409 107.211 139.056 106.662 139.542 105.953L139.623 102.953C139.029 102.98 138.302 103.046 137.492 103.111Z" fill="#964900"/>
<path d="M159.657 109.918C159.387 110.207 159.037 110.37 158.551 110.37C158.443 110.37 158.336 110.306 158.228 110.242C158.094 110.112 157.987 110.015 157.878 109.887C157.743 109.759 157.636 109.629 157.555 109.467C157.448 109.337 157.42 109.242 157.42 109.112C157.42 109.048 157.448 108.92 157.555 108.79C157.608 108.66 157.69 108.563 157.743 108.499C157.771 108.37 157.797 108.079 157.824 107.629C157.852 107.209 157.878 106.821 157.878 106.435V105.821C157.878 105.532 157.85 105.143 157.85 104.693L157.797 103.274C157.769 102.757 157.743 102.241 157.688 101.724C157.634 101.144 157.553 100.596 157.472 100.047C157.363 99.5302 157.256 99.0777 157.121 98.6914C156.987 98.3051 156.852 98.0138 156.69 97.7865C156.501 97.5613 156.311 97.4312 156.151 97.4312C155.773 97.4312 155.424 97.6894 155.127 98.1728C154.804 98.6563 154.56 99.2058 154.372 99.8504C154.156 100.497 153.994 101.173 153.887 101.819C153.778 102.497 153.724 103.011 153.724 103.367V104.786C153.724 105.108 153.752 105.4 153.752 105.656V106.172C153.752 106.236 153.752 106.364 153.78 106.559V107.172C153.78 107.43 153.807 107.656 153.807 107.85V108.302C153.807 108.689 153.645 108.98 153.375 109.205C153.078 109.463 152.809 109.591 152.565 109.591C152.377 109.591 152.215 109.527 152.108 109.366C151.973 109.238 151.864 109.044 151.811 108.817C151.73 108.625 151.676 108.397 151.648 108.139C151.595 107.914 151.595 107.72 151.595 107.559C151.595 107.492 151.567 107.267 151.567 106.912C151.567 106.59 151.54 106.17 151.54 105.72L151.486 104.429C151.458 103.976 151.458 103.623 151.458 103.301C151.458 103.139 151.431 102.751 151.431 102.173C151.403 101.623 151.35 101.045 151.296 100.398C151.187 99.6872 151.054 99.0757 150.864 98.5592C150.648 98.1067 150.433 97.8506 150.191 97.8506C149.921 97.8506 149.624 98.0427 149.246 98.367C148.842 98.7534 148.519 99.2058 148.275 99.7864C148.06 100.303 147.897 100.786 147.79 101.303C147.655 101.819 147.602 102.239 147.602 102.497V103.272C147.602 103.658 147.574 104.077 147.574 104.497V106.528C147.574 107.238 147.547 107.817 147.493 108.302C147.44 108.819 147.358 109.141 147.305 109.269C147.17 109.494 147.008 109.656 146.82 109.786C146.604 109.916 146.388 110.011 146.199 110.011C145.984 110.011 145.742 109.916 145.526 109.786C145.282 109.658 145.148 109.496 145.148 109.269C145.175 109.108 145.201 108.947 145.201 108.753C145.201 108.558 145.229 108.397 145.282 108.203L145.364 106.848C145.391 106.395 145.417 106.009 145.417 105.687V101.464L145.364 99.4641C145.336 98.6914 145.31 98.0448 145.31 97.5303C145.282 97.0469 145.282 96.6585 145.282 96.3362C145.282 96.047 145.364 95.7557 145.552 95.4664C145.714 95.2082 145.984 95.0801 146.36 95.0801C146.738 95.0801 147.008 95.2722 147.196 95.5966C147.358 95.9189 147.465 96.3073 147.465 96.7246V98.6274C147.547 98.4662 147.628 98.272 147.735 98.0799C147.816 97.8857 147.923 97.6935 148.085 97.4993C148.355 97.0469 148.652 96.6936 148.977 96.4354C149.3 96.2102 149.678 96.08 150.11 96.08C150.757 96.08 151.324 96.3052 151.835 96.7577C152.346 97.2101 152.78 97.9828 153.103 99.0158C153.4 97.9848 153.804 97.1461 154.317 96.4684C154.802 95.8218 155.368 95.4685 156.016 95.4685C156.394 95.4685 156.771 95.5966 157.149 95.7908C157.5 96.049 157.823 96.3383 158.12 96.6606C158.498 97.144 158.821 97.6935 159.09 98.3071C159.334 98.9207 159.522 99.5653 159.684 100.241C159.819 100.952 159.926 101.627 159.981 102.305C160.009 103.015 160.035 103.691 160.035 104.338V108.629C160.033 109.207 159.899 109.627 159.657 109.918Z" fill="#964900"/>
<path d="M173.461 108.401C173.083 108.757 172.598 109.046 172.059 109.304C171.52 109.563 170.926 109.788 170.28 109.918C169.606 110.046 168.985 110.11 168.392 110.11C167.394 110.11 166.558 109.918 165.857 109.594C165.13 109.238 164.536 108.755 164.078 108.174C163.619 107.594 163.268 106.949 163.054 106.174C162.838 105.431 162.731 104.658 162.731 103.883C162.731 102.85 162.866 101.786 163.163 100.755C163.46 99.7223 163.864 98.7864 164.349 97.9477C164.807 97.1419 165.346 96.4643 165.94 95.9478C166.532 95.4313 167.126 95.1751 167.746 95.1751C168.366 95.1751 169.042 95.2702 169.769 95.4334C170.47 95.6276 171.118 95.8858 171.656 96.2081C172.33 96.6606 172.896 97.175 173.356 97.7886C173.788 98.4352 174.003 99.2079 174.003 100.047C174.003 100.66 173.841 101.239 173.518 101.755C173.195 102.305 172.789 102.788 172.278 103.175C171.738 103.594 171.145 103.916 170.444 104.174C169.743 104.433 169.016 104.53 168.259 104.53C167.72 104.53 167.154 104.433 166.56 104.241C165.967 104.048 165.455 103.821 165.023 103.499C165.023 104.177 165.076 104.821 165.239 105.466C165.373 106.112 165.617 106.627 165.966 107.046C166.289 107.499 166.72 107.821 167.206 108.046C167.665 108.304 168.204 108.432 168.796 108.432C169.119 108.432 169.47 108.401 169.821 108.271C170.143 108.176 170.494 108.046 170.819 107.852C171.142 107.691 171.439 107.497 171.736 107.302C172.005 107.108 172.249 106.916 172.491 106.722C172.706 106.561 172.948 106.464 173.219 106.464C173.435 106.464 173.624 106.561 173.786 106.753C173.921 106.947 174.002 107.108 174.002 107.236C174 107.691 173.812 108.079 173.461 108.401ZM171.736 98.8195C171.52 98.4641 171.251 98.1728 170.928 97.9167C170.605 97.6915 170.2 97.4973 169.741 97.3671C169.282 97.239 168.878 97.1729 168.527 97.1729C168.149 97.1729 167.798 97.3031 167.475 97.4952C167.125 97.7204 166.828 98.0117 166.558 98.367C166.261 98.7224 166.019 99.1418 165.803 99.5922C165.588 100.076 165.425 100.559 165.318 101.076C165.48 101.625 165.803 102.044 166.342 102.301C166.855 102.623 167.501 102.753 168.258 102.753C168.689 102.753 169.121 102.689 169.579 102.561C170.01 102.433 170.442 102.272 170.819 102.044C171.169 101.819 171.466 101.528 171.708 101.206C171.924 100.883 172.059 100.528 172.059 100.142C172.059 99.6583 171.952 99.2079 171.736 98.8195Z" fill="#964900"/>
</g>
<g clip-path="url(#clip2_0_1)">
<path d="M227.356 347.362L225.468 347.874L223.072 329.902L223.057 329.879C222.756 330.744 222.087 332.752 221.049 335.904C220.013 339.056 219.002 342.219 218.019 345.39H216.418C215.498 342.455 214.479 339.28 213.366 335.867C212.252 332.455 211.598 330.466 211.405 329.9L211.382 329.898C211.335 330.176 211.022 332.219 210.441 336.025C209.86 339.832 209.306 343.771 208.781 347.839L207 347.394C207.773 342.792 208.496 338.233 209.168 333.719C209.84 329.205 210.209 326.752 210.271 326.368L212.116 326C212.193 326.247 212.741 327.964 213.758 331.156C214.774 334.348 215.97 338.027 217.347 342.19H217.416C218.468 338.923 219.582 335.442 220.757 331.749C221.933 328.056 222.543 326.138 222.59 326L224.342 326.192C224.365 326.426 224.685 328.768 225.304 333.213C225.923 337.659 226.606 342.376 227.356 347.362Z" fill="#964900"/>
<path d="M240.452 332.133C238.944 336.723 237.358 341.601 235.69 346.763C234.024 351.925 233.136 354.672 233.029 355.002L231.426 354.185L233.825 347.314C233.763 347.101 233.278 345.543 232.371 342.639C231.463 339.735 230.357 336.266 229.051 332.23L230.785 331.189C231.635 334.158 232.502 337.091 233.383 339.988C234.265 342.886 234.728 344.411 234.775 344.561H234.798C234.845 344.455 235.285 343.034 236.12 340.302C236.955 337.569 237.868 334.553 238.857 331.254L240.452 332.133Z" fill="#964900"/>
<path d="M263.116 326.24C263.101 327.916 263.087 329.833 263.075 331.989C263.063 334.145 263.058 335.699 263.058 336.65C263.058 339.681 263.066 342.092 263.081 343.88C263.096 345.668 263.104 346.621 263.104 346.738L261.56 347.778C259.226 343.425 257.042 339.493 255.013 335.988C252.984 332.48 251.81 330.456 251.492 329.911L251.469 329.927C251.469 332.789 251.483 336.303 251.51 340.471C251.537 344.638 251.554 347.043 251.562 347.684H249.752C249.759 347.417 249.772 346.466 249.787 344.835C249.802 343.201 249.809 340.928 249.809 338.012C249.809 336.848 249.805 335.302 249.797 333.376C249.79 331.45 249.775 329.407 249.75 327.251L251.513 326.098C251.652 326.345 252.837 328.419 255.069 332.324C257.299 336.228 259.401 339.854 261.373 343.205L261.395 343.189C261.395 341.547 261.38 338.781 261.348 334.893C261.318 331.005 261.302 328.12 261.302 326.242H263.116V326.24Z" fill="#964900"/>
<path d="M276.003 338.555C276.003 341.202 275.999 343.36 275.991 345.025C275.983 346.69 275.979 347.588 275.979 347.716C275.902 347.726 275.542 347.766 274.9 347.835C274.258 347.904 273.431 347.939 272.419 347.939C271.785 347.939 271.146 347.86 270.504 347.699C269.863 347.538 269.309 347.308 268.846 347.009C268.227 346.615 267.726 346.076 267.343 345.393C266.961 344.709 266.77 343.886 266.77 342.925C266.77 341.912 266.995 341.033 267.448 340.291C267.9 339.549 268.528 338.948 269.333 338.49C269.836 338.202 270.507 337.943 271.346 337.713C272.184 337.483 273.142 337.31 274.216 337.193C274.169 336.36 274.019 335.676 273.764 335.144C273.508 334.611 273.133 334.204 272.638 333.926C272.297 333.734 271.919 333.598 271.502 333.518C271.084 333.439 270.597 333.399 270.04 333.399C269.692 333.399 269.397 333.41 269.153 333.431C268.91 333.452 268.58 333.479 268.162 333.51L268.348 331.379C268.465 331.369 268.695 331.35 269.038 331.323C269.382 331.296 269.852 331.283 270.447 331.283C271.359 331.283 272.173 331.415 272.889 331.676C273.605 331.937 274.198 332.361 274.67 332.948C275.11 333.504 275.443 334.189 275.667 335.006C275.891 335.823 276.003 337.007 276.003 338.555ZM274.228 342.414C274.228 342.05 274.228 341.59 274.228 341.037C274.228 340.481 274.224 339.842 274.216 339.115C273.876 339.136 273.281 339.23 272.429 339.395C271.579 339.56 270.863 339.798 270.283 340.107C269.851 340.331 269.466 340.667 269.129 341.116C268.793 341.565 268.625 342.119 268.625 342.781C268.625 343.508 268.769 344.091 269.055 344.534C269.341 344.977 269.731 345.315 270.226 345.551C270.604 345.733 271.025 345.863 271.485 345.944C271.945 346.023 272.431 346.063 272.941 346.063C273.095 346.063 273.284 346.057 273.509 346.046C273.735 346.036 273.969 346.025 274.218 346.015C274.218 345.94 274.219 345.589 274.224 344.958C274.228 344.327 274.228 343.481 274.228 342.414Z" fill="#964900"/>
<path d="M296.777 347.682H294.944C294.952 347.565 294.961 346.817 294.973 345.441C294.985 344.064 294.99 342.767 294.99 341.549C294.99 341.068 294.988 340.281 294.984 339.186C294.979 338.091 294.975 337.272 294.967 336.727C294.944 335.447 294.76 334.561 294.416 334.07C294.073 333.579 293.54 333.333 292.821 333.333C292.396 333.333 291.891 333.479 291.308 333.769C290.724 334.059 290.066 334.513 289.331 335.127C289.331 335.181 289.332 335.288 289.337 335.447C289.341 335.607 289.343 335.814 289.343 336.069C289.343 336.932 289.338 337.811 289.331 338.701C289.323 339.591 289.319 340.441 289.319 341.252C289.319 343.024 289.328 344.509 289.347 345.714C289.367 346.92 289.376 347.573 289.376 347.682H287.544C287.544 347.565 287.551 346.92 287.566 345.743C287.581 344.569 287.589 343.18 287.589 341.58C287.589 341.045 287.588 340.237 287.583 339.155C287.578 338.07 287.574 337.272 287.566 336.761C287.559 336.291 287.527 335.844 287.474 335.415C287.42 334.989 287.32 334.626 287.173 334.327C287.011 333.997 286.802 333.748 286.546 333.583C286.291 333.418 285.928 333.335 285.456 333.335C285.023 333.335 284.516 333.51 283.936 333.859C283.357 334.208 282.691 334.711 281.942 335.367C281.942 335.549 281.938 336.228 281.93 337.406C281.922 338.584 281.918 339.547 281.918 340.293C281.918 341.563 281.927 343.084 281.947 344.86C281.966 346.635 281.975 347.576 281.975 347.682H280.144C280.144 347.596 280.152 346.974 280.167 345.817C280.182 344.659 280.19 342.739 280.19 340.059C280.19 339.184 280.188 338.004 280.184 336.52C280.179 335.037 280.167 333.355 280.143 331.475H281.953L281.941 333.318L281.953 333.335C282.47 332.823 283.122 332.315 283.908 331.814C284.693 331.312 285.386 331.062 285.99 331.062C286.748 331.062 287.38 331.281 287.886 331.718C288.393 332.156 288.754 332.71 288.971 333.383H288.993C289.883 332.624 290.7 332.048 291.446 331.653C292.192 331.258 292.827 331.06 293.354 331.06C294.421 331.06 295.255 331.49 295.854 332.349C296.453 333.207 296.753 334.369 296.753 335.831C296.753 336.963 296.746 337.916 296.736 338.689C296.724 339.464 296.719 340.283 296.719 341.148C296.719 342.942 296.728 344.457 296.748 345.695C296.768 346.936 296.777 347.596 296.777 347.682Z" fill="#964900"/>
<path d="M310 338.988H301.614C301.622 340.12 301.796 341.158 302.136 342.102C302.477 343.047 302.999 343.83 303.702 344.448C304.15 344.843 304.662 345.14 305.234 345.336C305.806 345.535 306.494 345.633 307.298 345.633C307.738 345.633 308.142 345.616 308.51 345.585C308.877 345.553 309.103 345.53 309.188 345.52L308.979 347.651C308.917 347.661 308.712 347.68 308.364 347.707C308.016 347.734 307.606 347.747 307.134 347.747C305.896 347.747 304.821 347.525 303.904 347.083C302.987 346.64 302.235 346.028 301.648 345.248C301.145 344.597 300.717 343.765 300.366 342.75C300.013 341.737 299.838 340.609 299.838 339.372C299.838 338.154 299.97 337.055 300.233 336.073C300.496 335.091 300.89 334.179 301.416 333.335C301.873 332.608 302.439 332.048 303.115 331.653C303.792 331.258 304.494 331.06 305.22 331.06C305.939 331.06 306.577 331.21 307.134 331.509C307.691 331.808 308.174 332.261 308.584 332.871C309.041 333.554 309.387 334.396 309.628 335.392C309.868 336.389 309.992 337.588 310 338.988ZM308.202 337.193C308.078 335.869 307.752 334.83 307.222 334.078C306.692 333.326 305.995 332.95 305.128 332.95C304.261 332.95 303.539 333.333 302.959 334.095C302.38 334.857 301.977 335.892 301.754 337.193H308.202Z" fill="#964900"/>
</g>
<defs>
<clipPath id="clip0_0_1">
<rect width="103" height="29" fill="white" transform="translate(71 249.304)"/>
</clipPath>
<clipPath id="clip1_0_1">
<rect width="103" height="29" fill="white" transform="translate(71 88.3037)"/>
</clipPath>
<clipPath id="clip2_0_1">
<rect width="103" height="29" fill="white" transform="translate(207 326)"/>
</clipPath>
</defs>
</svg>
