<svg width="470" height="328" viewBox="0 0 470 328" fill="none" xmlns="http://www.w3.org/2000/svg">
<path d="M342.99 86.0261H307.65L289.98 115.663L307.65 145.31H342.99L360.66 115.663L342.99 86.0261Z" fill="#964900"/>
<path d="M342.99 25.7831H307.65L289.98 55.43L307.65 85.0673H342.99L360.66 55.43L342.99 25.7831Z" fill="#964900"/>
<path d="M234.15 25.7831H198.81L181.14 55.43L198.81 85.0673H234.15L251.82 55.43L234.15 25.7831Z" fill="#964900"/>
<path d="M234.15 86.0261H198.81L181.14 115.663L198.81 145.31H234.15L251.82 115.663L234.15 86.0261Z" fill="#964900"/>
<path d="M288.57 55.9046H253.23L235.56 85.5516L253.23 115.189H288.57L306.24 85.5516L288.57 55.9046Z" fill="#964900"/>
<path d="M288.57 -4.3288H253.23L235.56 25.3085L253.23 54.9457H288.57L306.24 25.3085L288.57 -4.3288Z" fill="#964900"/>
<path d="M288.57 116.148H253.23L235.56 145.785L253.23 175.432H288.57L306.24 145.785L288.57 116.148Z" fill="#964900"/>
<path d="M234.15 -35.138H198.81L181.14 -5.49105L198.81 24.1462H234.15L251.82 -5.49105L234.15 -35.138Z" fill="#964900"/>
<path d="M451.83 -35.138H416.49L398.82 -5.49105L416.49 24.1462H451.83L469.5 -5.49105L451.83 -35.138Z" fill="#964900"/>
<path d="M342.99 -35.138H307.65L289.98 -5.49105L307.65 24.1462H342.99L360.66 -5.49105L342.99 -35.138Z" fill="#964900"/>
<path d="M397.41 -5.01642H362.07L344.4 24.6209L362.07 54.2678H397.41L415.08 24.6209L397.41 -5.01642Z" fill="#964900"/>
<path d="M179.72 55.9046H144.39L126.72 85.5516L144.39 115.189H179.72L197.39 85.5516L179.72 55.9046Z" fill="#964900"/>
<path d="M179.72 -4.32874H144.39L126.72 25.3085L144.39 54.9458H179.72L197.39 25.3085L179.72 -4.32874Z" fill="#964900"/>
<path d="M70.8801 -4.32874H35.5401L17.8701 25.3085L35.5401 54.9458H70.8801L88.5501 25.3085L70.8801 -4.32874Z" fill="#964900"/>
<path d="M70.8801 55.9046H35.5401L17.8701 85.5516L35.5401 115.189H70.8801L88.5501 85.5516L70.8801 55.9046Z" fill="#964900"/>
<path d="M125.3 25.7831H89.9601L72.2901 55.43L89.9601 85.0673H125.3L142.97 55.43L125.3 25.7831Z" fill="#964900"/>
<path d="M125.3 -34.4503H89.9601L72.2901 -4.81304L89.9601 24.8339H125.3L142.97 -4.81304L125.3 -34.4503Z" fill="#964900"/>
<path d="M125.3 86.0262H89.9601L72.2901 115.663L89.9601 145.31H125.3L142.97 115.663L125.3 86.0262Z" fill="#964900"/>
<path d="M16.4601 25.783H-18.8799L-36.5499 55.43L-18.8799 85.0672H16.4601L34.1301 55.43L16.4601 25.783Z" fill="#964900"/>
<path d="M16.4601 -34.4504H-18.8799L-36.5499 -4.8131L-18.8799 24.8339H16.4601L34.1301 -4.8131L16.4601 -34.4504Z" fill="#964900"/>
<path d="M234.15 207.19H198.81L181.14 236.828L198.81 266.475H234.15L251.82 236.828L234.15 207.19Z" fill="#964900"/>
<path d="M234.15 146.947H198.81L181.14 176.594L198.81 206.231H234.15L251.82 176.594L234.15 146.947Z" fill="#964900"/>
<path d="M125.3 146.947H89.9601L72.2901 176.594L89.9601 206.231H125.3L142.97 176.594L125.3 146.947Z" fill="#964900"/>
<path d="M125.3 207.19H89.9601L72.2901 236.828L89.9601 266.475H125.3L142.97 236.828L125.3 207.19Z" fill="#964900"/>
<path d="M179.72 177.069H144.39L126.72 206.716L144.39 236.353H179.72L197.39 206.716L179.72 177.069Z" fill="#964900"/>
<path d="M179.72 116.835H144.39L126.72 146.473L144.39 176.11H179.72L197.39 146.473L179.72 116.835Z" fill="#964900"/>
<path d="M179.72 237.312H144.39L126.72 266.949L144.39 296.596H179.72L197.39 266.949L179.72 237.312Z" fill="#964900"/>
<path d="M70.8801 176.381H35.5401L17.8701 206.028L35.5401 235.665H70.8801L88.5501 206.028L70.8801 176.381Z" fill="#964900"/>
<path d="M70.8801 116.148H35.5401L17.8701 145.785L35.5401 175.432H70.8801L88.5501 145.785L70.8801 116.148Z" fill="#964900"/>
<path d="M16.4602 146.269H-18.8798L-36.5498 175.906L-18.8798 205.553H16.4602L34.1302 175.906L16.4602 146.269Z" fill="#964900"/>
<path d="M16.4602 86.0261H-18.8798L-36.5498 115.663L-18.8798 145.31H16.4602L34.1302 115.663L16.4602 86.0261Z" fill="#964900"/>
<path d="M16.4602 206.503H-18.8798L-36.5498 236.15L-18.8798 265.787H16.4602L34.1302 236.15L16.4602 206.503Z" fill="#964900"/>
<path d="M335.49 78.7621H300.15L282.48 108.399L300.15 138.046H335.49L353.16 108.399L335.49 78.7621Z" fill="#FAC200" stroke="white" stroke-width="2" stroke-miterlimit="10"/>
<path d="M335.49 18.5191H300.15L282.48 48.1661L300.15 77.8033H335.49L353.16 48.1661L335.49 18.5191Z" fill="#FAC200" stroke="white" stroke-width="2" stroke-miterlimit="10"/>
<path d="M226.65 18.5191H191.31L173.64 48.1661L191.31 77.8033H226.65L244.32 48.1661L226.65 18.5191Z" fill="#FFE100" stroke="white" stroke-width="2" stroke-miterlimit="10"/>
<path d="M226.65 78.7621H191.31L173.64 108.399L191.31 138.046H226.65L244.32 108.399L226.65 78.7621Z" fill="#FFE100" stroke="white" stroke-width="2" stroke-miterlimit="10"/>
<path d="M281.07 48.6406H245.73L228.06 78.2875L245.73 107.925H281.07L298.74 78.2875L281.07 48.6406Z" fill="#FAC200" stroke="white" stroke-width="2" stroke-miterlimit="10"/>
<path d="M281.07 -11.5928H245.73L228.06 18.0444L245.73 47.6817H281.07L298.74 18.0444L281.07 -11.5928Z" fill="#FFE100" stroke="white" stroke-width="2" stroke-miterlimit="10"/>
<path d="M281.07 108.884H245.73L228.06 138.521L245.73 168.168H281.07L298.74 138.521L281.07 108.884Z" fill="#FAC200" stroke="white" stroke-width="2" stroke-miterlimit="10"/>
<path d="M226.65 -42.402H191.31L173.64 -12.755L191.31 16.8822H226.65L244.32 -12.755L226.65 -42.402Z" fill="#FAC200" stroke="white" stroke-width="2" stroke-miterlimit="10"/>
<path d="M444.33 -42.402H408.99L391.32 -12.755L408.99 16.8822H444.33L462 -12.755L444.33 -42.402Z" fill="#FAC200" stroke="white" stroke-width="2" stroke-miterlimit="10"/>
<path d="M335.49 -42.402H300.15L282.48 -12.755L300.15 16.8822H335.49L353.16 -12.755L335.49 -42.402Z" fill="#FAC200" stroke="white" stroke-width="2" stroke-miterlimit="10"/>
<path d="M389.91 -12.2805H354.57L336.9 17.3568L354.57 47.0038H389.91L407.58 17.3568L389.91 -12.2805Z" fill="#FAC200" stroke="white" stroke-width="2" stroke-miterlimit="10"/>
<path d="M172.22 48.6406H136.89L119.22 78.2875L136.89 107.925H172.22L189.89 78.2875L172.22 48.6406Z" fill="#FAC200" stroke="white" stroke-width="2" stroke-miterlimit="10"/>
<path d="M172.22 -11.5928H136.89L119.22 18.0445L136.89 47.6818H172.22L189.89 18.0445L172.22 -11.5928Z" fill="#FAC200" stroke="white" stroke-width="2" stroke-miterlimit="10"/>
<path d="M63.3801 -11.5928H28.0401L10.3701 18.0445L28.0401 47.6818H63.3801L81.0501 18.0445L63.3801 -11.5928Z" fill="#FAC200" stroke="white" stroke-width="2" stroke-miterlimit="10"/>
<path d="M63.3801 48.6406H28.0401L10.3701 78.2875L28.0401 107.925H63.3801L81.0501 78.2875L63.3801 48.6406Z" fill="#FFE100" stroke="white" stroke-width="2" stroke-miterlimit="10"/>
<path d="M117.8 18.5191H82.4601L64.7901 48.1661L82.4601 77.8033H117.8L135.47 48.1661L117.8 18.5191Z" fill="#FAC200" stroke="white" stroke-width="2" stroke-miterlimit="10"/>
<path d="M117.8 -41.7144H82.4601L64.7901 -12.0771L82.4601 17.5699H117.8L135.47 -12.0771L117.8 -41.7144Z" fill="#FFE100" stroke="white" stroke-width="2" stroke-miterlimit="10"/>
<path d="M117.8 78.7621H82.4601L64.7901 108.399L82.4601 138.046H117.8L135.47 108.399L117.8 78.7621Z" fill="#FAC200" stroke="white" stroke-width="2" stroke-miterlimit="10"/>
<path d="M8.96014 18.519H-26.3799L-44.0499 48.166L-26.3799 77.8033H8.96014L26.6301 48.166L8.96014 18.519Z" fill="#FAC200" stroke="white" stroke-width="2" stroke-miterlimit="10"/>
<path d="M8.96014 -41.7144H-26.3799L-44.0499 -12.0771L-26.3799 17.5699H8.96014L26.6301 -12.0771L8.96014 -41.7144Z" fill="#FAC200" stroke="white" stroke-width="2" stroke-miterlimit="10"/>
<path d="M226.65 199.926H191.31L173.64 229.564L191.31 259.21H226.65L244.32 229.564L226.65 199.926Z" fill="#FAC200" stroke="white" stroke-width="2" stroke-miterlimit="10"/>
<path d="M226.65 139.683H191.31L173.64 169.33L191.31 198.967H226.65L244.32 169.33L226.65 139.683Z" fill="#FAC200" stroke="white" stroke-width="2" stroke-miterlimit="10"/>
<path d="M117.8 139.683H82.4601L64.7901 169.33L82.4601 198.967H117.8L135.47 169.33L117.8 139.683Z" fill="#FAC200" stroke="white" stroke-width="2" stroke-miterlimit="10"/>
<path d="M117.8 199.926H82.4601L64.7901 229.564L82.4601 259.21H117.8L135.47 229.564L117.8 199.926Z" fill="#FAC200" stroke="white" stroke-width="2" stroke-miterlimit="10"/>
<path d="M172.22 169.805H136.89L119.22 199.452L136.89 229.089H172.22L189.89 199.452L172.22 169.805Z" fill="#FAC200" stroke="white" stroke-width="2" stroke-miterlimit="10"/>
<path d="M172.22 109.571H136.89L119.22 139.209L136.89 168.846H172.22L189.89 139.209L172.22 109.571Z" fill="#FAC200" stroke="white" stroke-width="2" stroke-miterlimit="10"/>
<path d="M172.22 230.048H136.89L119.22 259.685L136.89 289.332H172.22L189.89 259.685L172.22 230.048Z" fill="#FAC200" stroke="white" stroke-width="2" stroke-miterlimit="10"/>
<path d="M63.3801 169.117H28.0401L10.3701 198.764L28.0401 228.401H63.3801L81.0501 198.764L63.3801 169.117Z" fill="#FAC200" stroke="white" stroke-width="2" stroke-miterlimit="10"/>
<path d="M63.3801 108.884H28.0401L10.3701 138.521L28.0401 168.168H63.3801L81.0501 138.521L63.3801 108.884Z" fill="#FAC200" stroke="white" stroke-width="2" stroke-miterlimit="10"/>
<path d="M8.96021 139.005H-26.3798L-44.0498 168.642L-26.3798 198.289H8.96021L26.6302 168.642L8.96021 139.005Z" fill="#FAC200" stroke="white" stroke-width="2" stroke-miterlimit="10"/>
<path d="M8.96021 78.7621H-26.3798L-44.0498 108.399L-26.3798 138.046H8.96021L26.6302 108.399L8.96021 78.7621Z" fill="#FAC200" stroke="white" stroke-width="2" stroke-miterlimit="10"/>
<path d="M8.96021 199.239H-26.3798L-44.0498 228.886L-26.3798 258.523H8.96021L26.6302 228.886L8.96021 199.239Z" fill="#FAC200" stroke="white" stroke-width="2" stroke-miterlimit="10"/>
</svg>
