<svg width="200" height="238" viewBox="0 0 200 238" fill="none" xmlns="http://www.w3.org/2000/svg">
<path d="M133.333 214.03L111.75 192.015L100 204L133.333 238L200 170L188.25 158.016L133.333 214.03Z" fill="#FFC700"/>
<path d="M75 221H16.6667V17.0027H83.3333V68.0021C83.3465 72.5066 85.1067 76.8227 88.2294 80.0079C91.3522 83.193 95.5838 84.9884 100 85.0019H150V136.001H166.667V68.0021C166.696 66.885 166.488 65.7747 166.056 64.7475C165.625 63.7204 164.98 62.8008 164.167 62.0521L105.833 2.55286C105.1 1.7228 104.198 1.06496 103.191 0.624718C102.184 0.18448 101.095 -0.0276742 100 0.00289031H16.6667C12.2504 0.0163433 8.01888 1.81171 4.89612 4.99688C1.77337 8.18204 0.0131894 12.4982 0 17.0027V221C0.0131894 225.505 1.77337 229.821 4.89612 233.006C8.01888 236.191 12.2504 237.987 16.6667 238H75V221ZM100 20.4026L146.667 68.0021H100V20.4026Z" fill="#FFC700"/>
</svg>
