<svg width="104" height="104" viewBox="0 0 104 104" fill="none" xmlns="http://www.w3.org/2000/svg">
<path d="M52 0C65.7913 0 79.0177 5.47856 88.7695 15.2304C98.5214 24.9823 104 38.2087 104 52C104 65.7913 98.5214 79.0177 88.7695 88.7695C79.0177 98.5214 65.7913 104 52 104C38.2087 104 24.9823 98.5214 15.2304 88.7695C5.47856 79.0177 0 65.7913 0 52C0 38.2087 5.47856 24.9823 15.2304 15.2304C24.9823 5.47856 38.2087 0 52 0ZM52 96.5714C63.8211 96.5714 75.158 91.8755 83.5168 83.5168C91.8755 75.158 96.5714 63.8211 96.5714 52C96.5714 40.1789 91.8755 28.842 83.5168 20.4832C75.158 12.1245 63.8211 7.42857 52 7.42857C40.1789 7.42857 28.842 12.1245 20.4832 20.4832C12.1245 28.842 7.42857 40.1789 7.42857 52C7.42857 63.8211 12.1245 75.158 20.4832 83.5168C28.842 91.8755 40.1789 96.5714 52 96.5714ZM57.5714 76.1429C57.5714 77.6205 56.9844 79.0376 55.9396 80.0824C54.8947 81.1273 53.4776 81.7143 52 81.7143C50.5224 81.7143 49.1052 81.1273 48.0604 80.0824C47.0156 79.0376 46.4286 77.6205 46.4286 76.1429C46.4286 74.6652 47.0156 73.2481 48.0604 72.2033C49.1052 71.1584 50.5224 70.5714 52 70.5714C53.4776 70.5714 54.8947 71.1584 55.9396 72.2033C56.9844 73.2481 57.5714 74.6652 57.5714 76.1429ZM52 22.2857C52.9851 22.2857 53.9298 22.677 54.6264 23.3736C55.323 24.0702 55.7143 25.0149 55.7143 26V59.4286C55.7143 60.4137 55.323 61.3584 54.6264 62.055C53.9298 62.7515 52.9851 63.1429 52 63.1429C51.0149 63.1429 50.0702 62.7515 49.3736 62.055C48.677 61.3584 48.2857 60.4137 48.2857 59.4286V26C48.2857 25.0149 48.677 24.0702 49.3736 23.3736C50.0702 22.677 51.0149 22.2857 52 22.2857Z" fill="#FFC700"/>
</svg>
