<svg width="598" height="213" viewBox="0 0 598 213" fill="none" xmlns="http://www.w3.org/2000/svg">
<path d="M236 97C236 97 236.053 33.9916 165 4" stroke="black" stroke-width="7" stroke-miterlimit="10" stroke-linecap="round" stroke-linejoin="round"/>
<path d="M373 97C373 97 372.947 33.9916 444 4" stroke="black" stroke-width="7" stroke-miterlimit="10" stroke-linecap="round" stroke-linejoin="round"/>
<path d="M299.985 815.508C464.574 815.508 598 637.006 598 416.812C598 196.619 464.574 44 299.985 44C135.396 44 1.96973 196.619 1.96973 416.812C1.96973 637.006 135.396 815.508 299.985 815.508Z" fill="#FAC200"/>
<path d="M357.464 128.808C366.045 128.808 373 121.853 373 113.273C373 104.692 366.045 97.7368 357.464 97.7368C348.884 97.7368 341.929 104.692 341.929 113.273C341.929 121.853 348.884 128.808 357.464 128.808Z" fill="black"/>
<path d="M240.139 128.808C248.719 128.808 255.675 121.853 255.675 113.273C255.675 104.692 248.719 97.7368 240.139 97.7368C231.559 97.7368 224.604 104.692 224.604 113.273C224.604 121.853 231.559 128.808 240.139 128.808Z" fill="black"/>
<path d="M263.726 154.631C263.726 154.631 294.524 179.685 333.898 154.631" stroke="black" stroke-width="5" stroke-miterlimit="10" stroke-linecap="round" stroke-linejoin="round"/>
</svg>
