<svg width="240" height="240" viewBox="0 0 240 240" fill="none" xmlns="http://www.w3.org/2000/svg">
<path d="M120 0C53.726 0 0 53.726 0 120C0 186.274 53.726 240 120 240C186.274 240 240 186.274 240 120C240 53.726 186.274 0 120 0ZM193.539 193.539C175.304 211.719 150.954 222.46 125.233 223.667C99.5117 224.875 74.2624 216.463 54.4046 200.07C34.5469 183.678 21.5033 160.48 17.8154 134.996C14.1275 109.512 20.0595 83.568 34.4556 62.2189C48.8516 40.8697 70.6804 25.6449 95.6886 19.5111C120.697 13.3773 147.093 16.7739 169.734 29.039C192.374 41.3041 209.638 61.5591 218.16 85.8573C226.682 110.156 225.853 136.756 215.833 160.477C210.612 172.836 203.04 184.065 193.539 193.539Z" fill="#FFC700"/>
<path d="M68.001 102C68.001 96.4774 72.4781 92.0002 78.001 92.0002C83.5238 92.0002 88.001 96.4774 88.001 102C88.001 107.523 83.5238 112 78.001 112C72.4781 112 68.001 107.523 68.001 102ZM152.001 102C152.001 96.4774 156.478 92.0002 162.001 92.0002C167.524 92.0002 172.001 96.4774 172.001 102C172.001 107.523 167.524 112 162.001 112C156.478 112 152.001 107.523 152.001 102ZM120.001 184C133.792 184 147.019 178.522 156.771 168.77C166.522 159.018 172.001 145.792 172.001 132H68.001C68.001 145.792 73.4795 159.018 83.2314 168.77C92.9833 178.522 106.21 184 120.001 184Z" fill="#FFC700"/>
</svg>
