<svg width="356" height="70" viewBox="0 0 356 70" fill="none" xmlns="http://www.w3.org/2000/svg">
<path d="M165.117 40.5855H151.959V35.3441H165.117V31.2135H151.333V5.1161H184.424V31.2135H170.358V35.3441H183.783V40.5855H170.358V44.8568L178.26 44.2936C180.497 44.2936 182.594 44.0589 184.549 43.5895V48.7683L167.965 50.0982C160.548 50.0982 154.634 50.4268 150.191 51.0839L148.939 45.4201L155.87 45.3575L165.101 45.0759V40.5855H165.117ZM158.045 53.6655C157.857 54.6512 157.716 55.4648 157.623 56.1063C156.778 60.581 155.62 64.4299 154.118 67.653L148.939 65.4156C150.848 62.0048 152.256 57.8586 153.132 52.9614L158.045 53.6655ZM156.308 26.1756H165.117V10.2323H156.308V26.1756ZM157.638 14.003L160.861 13.0955L162.254 17.4295C162.582 18.509 162.927 19.9485 163.302 21.7634C163.349 21.9981 163.412 22.3266 163.505 22.7491L159.876 23.8756L158.968 18.9784C158.499 16.788 158.045 15.1295 157.638 14.003ZM160.564 66.8863C160.752 65.3061 160.846 63.0374 160.846 60.096C160.846 57.53 160.752 55.3709 160.564 53.5873L165.32 53.2431C165.743 55.3396 165.946 57.3892 165.946 59.3919C165.946 63.1156 165.962 65.4313 166.009 66.3231L160.564 66.8863ZM170.64 65.6972C170.358 60.8939 169.748 56.7947 168.825 53.3839L173.378 52.6798C174.505 56.2784 175.287 60.2055 175.756 64.5081L170.64 65.6972ZM170.358 26.1756H179.449V10.2323H170.358V26.1756ZM173.644 17.5077L174.552 12.8921L177.915 13.737L177.071 19.0566C176.601 21.6226 176.226 23.2498 175.944 23.9538L172.095 22.8273L172.658 21.1532C173.19 19.5104 173.503 18.3056 173.644 17.5077ZM180.294 63.8041L179.949 62.0517C179.668 60.7531 179.324 59.4701 178.901 58.2028L177.008 52.6016L181.138 51.6159C183.094 55.809 184.377 59.2667 184.987 61.9735L180.294 63.8041ZM194.5 34.0142V3.37939H200.649V15.0669H213.166V20.809H200.649V34.0298" fill="#FAC200"/>
<path d="M204.983 39.772H191.699L185.05 51.2874L191.699 62.8028H204.983L211.632 51.2874L204.983 39.772ZM202.292 58.1247H194.391L190.432 51.2717L194.391 44.4188H202.292L206.25 51.2717L202.292 58.1247Z" fill="#FAC200"/>
<path d="M328.445 18.4778C336.378 23.6096 345.515 27.5681 355.872 30.3687L353.291 36.8774C352.399 36.5488 351.664 36.2985 351.053 36.1108C346.485 34.5305 342.057 32.6061 337.77 30.3687V34.1394H309.842V30.7755C305.931 32.7312 300.861 34.687 294.665 36.6584L291.521 30.2279C302.379 28.2721 311.97 24.0477 320.262 17.5703H324.878L322.359 15.4737C325.77 12.5792 328.492 8.54258 330.542 3.37941L337.113 4.00525L336.065 6.52425L334.813 8.83985H355.231V14.3629H344.467L345.515 16.6002C345.656 16.9288 345.984 17.8832 346.5 19.4635C346.594 19.6981 346.704 19.9954 346.845 20.3709L340.133 21.4974L339.006 17.0853C338.771 16.0996 338.521 15.3329 338.239 14.7697L338.036 14.3472H331.465C331.324 14.5819 331.214 14.7853 331.121 14.9731C330.166 16.6628 329.29 17.8363 328.445 18.4778ZM309.279 21.2784L308.23 16.8662C307.902 15.5207 307.62 14.6758 307.386 14.3472H303.818C302.238 17.2417 300.016 20.1049 297.169 22.9525L291.787 18.3369C296.308 14.6132 299.907 9.62215 302.551 3.36377L309.201 4.20865L308.074 6.64942L306.948 8.82421H323.251V14.3472H313.675L314.52 16.6628L315.428 19.8077L309.279 21.2784ZM312.846 53.1805L311.454 55.9811C315.318 57.0137 318.932 58.4532 322.296 60.315L318.792 65.2748C316.226 63.5538 313.096 61.9579 309.42 60.5184C309.185 60.4246 308.903 60.315 308.575 60.1742C306.103 63.2565 301.863 65.7442 295.839 67.653L292.553 62.2708C299.782 60.4089 304.507 57.3736 306.76 53.1805H312.846ZM323.83 22.2641C321.029 24.6892 317.853 26.8327 314.317 28.6946L313.613 29.0388H334.876C331.793 27.5994 328.602 25.6749 325.3 23.2967C324.925 23.0307 324.44 22.6865 323.83 22.2641ZM340.336 53.1805L339.288 55.277C344.654 57.1859 349.411 59.3763 353.557 61.8484L350.13 67.4496C346.5 64.9775 341.916 62.4898 336.425 59.9708C334.093 62.8653 330.291 65.4313 325.019 67.6686L321.733 62.2082L324.455 61.3007C329.259 59.4389 332.544 56.7321 334.312 53.1805H340.336Z" fill="#FAC200"/>
<path d="M314.802 36.3455H305.712L301.159 44.2154L305.712 52.0853H314.802L319.355 44.2154L314.802 36.3455ZM312.111 47.4228H308.403L306.541 44.2154L308.403 41.008H312.111L313.973 44.2154L312.111 47.4228Z" fill="#FAC200"/>
<path d="M342.323 36.3455H333.233L328.68 44.2154L333.233 52.0853H342.323L346.876 44.2154L342.323 36.3455ZM339.632 47.4228H335.924L334.062 44.2154L335.924 41.008H339.632L341.494 44.2154L339.632 47.4228Z" fill="#FAC200"/>
<path d="M236.431 40.5542H223.273V35.3128H236.431V31.1823H241.673V35.3128H255.097V40.5542H241.673V44.8256L249.574 44.2623C251.811 44.2623 253.908 44.0276 255.863 43.5583V48.7371L239.279 50.067C231.863 50.067 225.948 50.3955 221.505 51.0527L220.253 45.3888L227.184 45.3263L236.416 45.0446V40.5542H236.431ZM229.359 53.6343C229.172 54.62 229.031 55.4335 228.937 56.075C228.092 60.5498 226.934 64.3987 225.432 67.6217L220.253 65.3844C222.162 61.9736 223.57 57.8274 224.446 52.9302L229.359 53.6343ZM231.878 66.8551C232.066 65.2749 232.16 63.0062 232.16 60.0647C232.16 57.4988 232.066 55.3397 231.878 53.556L236.635 53.2118C237.057 55.3084 237.26 57.358 237.26 59.3607C237.26 63.0844 237.276 65.4 237.323 66.2918L231.878 66.8551ZM241.954 65.666C241.673 60.8627 241.062 56.7635 240.139 53.3526L244.692 52.6486C245.819 56.2471 246.601 60.1743 247.07 64.4769L241.954 65.666ZM251.608 63.7728L251.264 62.0205C250.982 60.7219 250.638 59.4389 250.215 58.1716L248.322 52.5703L252.453 51.5846C254.408 55.7778 255.691 59.2355 256.302 61.9423L251.608 63.7728ZM265.814 33.9829V3.33252H271.963V15.02H284.48V20.7621H271.963V33.9829H281.898V67.7H275.953V62.881H263.984V67.7H258.038V33.9829H265.814ZM275.953 39.6468H263.984V57.2015H275.953V39.6468Z" fill="#FAC200"/>
<path d="M246.46 3.61401H231.299L223.727 16.741L231.299 29.8679H246.46L254.033 16.741L246.46 3.61401ZM243.769 25.2054H233.99L229.109 16.741L233.99 8.27651H243.769L248.651 16.741L243.769 25.2054Z" fill="#FAC200"/>
<path d="M235.962 14.519H233.396L232.113 16.7408L233.396 18.9625H235.962L237.245 16.7408L235.962 14.519Z" fill="#FAC200"/>
<path d="M244.364 14.519H241.798L240.515 16.7408L241.798 18.9625H244.364L245.647 16.7408L244.364 14.519Z" fill="#FAC200"/>
<path d="M29.717 69.2177C21.7688 69.2177 15.0724 64.7898 13.054 58.1873C11.1922 52.1323 13.6329 45.3419 19.1403 40.8359C18.8274 40.7577 18.5301 40.6638 18.2329 40.5699C12.2092 38.7237 7.17117 34.9843 4.01069 30.0558C0.834562 25.0961 -0.0416112 19.4948 1.55428 14.3316C4.04198 6.22704 12.2874 0.766602 22.0818 0.766602C24.7729 0.766602 27.464 1.17339 30.0925 1.98698C36.1162 3.83321 41.1542 7.57259 44.3147 12.5011C47.4908 17.4608 48.367 23.0621 46.7711 28.2253C45.6759 31.7925 43.4854 34.8748 40.4032 37.2373C45.0344 39.0522 48.3983 42.51 49.7595 46.9065C51.0581 51.1153 50.3384 55.6683 47.7568 59.7049C45.1908 63.6946 41.1072 66.7299 36.2257 68.232C34.0822 68.8891 31.8918 69.2177 29.717 69.2177Z" fill="white"/>
<path d="M22.0661 1.5646C24.6164 1.5646 27.2449 1.9401 29.8578 2.75369C41.9365 6.46178 49.1649 17.7738 46.0201 28.0063C44.7997 31.996 42.1555 35.2347 38.6978 37.4877C43.6106 38.9741 47.5377 42.4005 48.9928 47.1413C51.5274 55.3867 45.6915 64.4926 35.9754 67.481C33.8632 68.1225 31.751 68.4354 29.7013 68.4354C22.2852 68.4354 15.7608 64.4144 13.7738 57.9526C11.8024 51.5534 14.8846 44.6223 20.924 40.4448C20.0947 40.2727 19.2811 40.0693 18.4519 39.819C6.37323 36.1109 -0.855201 24.7988 2.28964 14.5664C4.7617 6.55566 12.8663 1.5646 22.0661 1.5646ZM22.0661 0C11.9432 0 3.38485 5.66384 0.803269 14.1127C-2.56061 25.0335 4.94944 37.0809 17.5601 41.1801C12.569 45.8739 10.4725 52.4765 12.303 58.422C14.4309 65.3531 21.4246 70 29.717 70C31.97 70 34.2387 69.6558 36.4448 68.983C41.4984 67.4341 45.7541 64.2892 48.4139 60.1274C51.1206 55.8873 51.8717 51.1153 50.5105 46.6875C49.2119 42.4475 46.1452 39.0523 41.9052 37.034C44.5806 34.7027 46.5051 31.7769 47.5377 28.46C50.9329 17.4139 43.2194 5.2101 30.3428 1.25168C27.6048 0.422443 24.8355 0 22.0661 0Z" fill="#2FBDF0"/>
<path d="M91.7845 69.2177C89.6097 69.2177 87.4193 68.8891 85.2914 68.232C80.4099 66.7299 76.3107 63.7103 73.7604 59.7049C71.1788 55.6683 70.4591 51.1153 71.7577 46.9065C73.1033 42.51 76.4828 39.0522 81.114 37.2373C78.0317 34.8904 75.8413 31.7925 74.7461 28.2253C73.1502 23.0464 74.0264 17.4608 77.2025 12.5011C80.363 7.57259 85.401 3.84885 91.4247 1.98698C94.0532 1.17339 96.7599 0.766602 99.4354 0.766602C109.214 0.766602 117.46 6.21139 119.947 14.3316C121.543 19.5105 120.667 25.0961 117.491 30.0558C114.33 34.9843 109.292 38.708 103.269 40.5699C102.971 40.6638 102.674 40.742 102.361 40.8359C107.869 45.3576 110.309 52.1479 108.447 58.1873C106.429 64.7898 99.7327 69.2177 91.7845 69.2177Z" fill="white"/>
<path d="M99.4354 1.5646C108.635 1.5646 116.74 6.55566 119.212 14.5664C122.357 24.7988 115.128 36.1109 103.05 39.819C102.22 40.0693 101.407 40.2727 100.578 40.4448C106.601 44.6223 109.683 51.5378 107.728 57.9526C105.741 64.4144 99.2163 68.4354 91.8002 68.4354C89.7505 68.4354 87.6383 68.1225 85.5261 67.481C75.81 64.4926 69.974 55.3867 72.5087 47.1413C73.9638 42.3849 77.8909 38.9584 82.8037 37.4877C79.346 35.2347 76.7018 31.996 75.4814 28.0063C72.3366 17.7738 79.565 6.46178 91.6437 2.75369C94.2566 1.9401 96.8851 1.5646 99.4354 1.5646ZM99.4354 0C96.666 0 93.8967 0.422443 91.19 1.25168C84.9942 3.16048 79.7997 7.00939 76.5454 12.0787C73.2441 17.2418 72.3366 23.0621 73.9951 28.46C75.0121 31.7769 76.9365 34.7027 79.6276 37.034C75.3876 39.0367 72.3209 42.4475 71.0223 46.6875C69.6611 51.1153 70.3965 55.903 73.1189 60.1274C75.7787 64.2736 80.0188 67.4184 85.088 68.983C87.2941 69.6558 89.5628 70 91.8158 70C100.108 70 107.102 65.3531 109.23 58.422C111.06 52.4765 108.948 45.8739 103.973 41.1801C116.583 37.0809 124.078 25.0335 120.73 14.1127C118.101 5.66384 109.558 0 99.4354 0Z" fill="#2FBDF0"/>
<path d="M94.6008 40.163L77.6719 10.8425H43.8297L26.9008 40.163L43.329 68.6074L54.7818 48.8309C54.2968 48.3459 53.9839 47.6731 53.9839 46.9377C53.9839 45.467 55.173 44.2779 56.6437 44.2779C58.1144 44.2779 59.3035 45.467 59.3035 46.9377C59.3035 48.4085 58.1144 49.5976 56.6437 49.5976C56.4873 49.5976 56.3308 49.5819 56.1743 49.5506L44.612 69.4679H77.6719L94.6008 40.163Z" fill="#FAC200"/>
<mask id="mask0_5_1156" style="mask-type:alpha" maskUnits="userSpaceOnUse" x="26" y="10" width="69" height="60">
<path d="M94.6008 40.163L77.6719 10.8425H43.8297L26.9008 40.163L43.329 68.6074L54.7818 48.8309C54.2968 48.3459 53.9839 47.6731 53.9839 46.9377C53.9839 45.467 55.173 44.2779 56.6437 44.2779C58.1144 44.2779 59.3035 45.467 59.3035 46.9377C59.3035 48.4085 58.1144 49.5976 56.6437 49.5976C56.4873 49.5976 56.3308 49.5819 56.1743 49.5506L44.612 69.4679H77.6719L94.6008 40.163Z" fill="#FAC200"/>
</mask>
<g mask="url(#mask0_5_1156)">
<path d="M93.1146 19.3381H25.4771V26.3632H93.1146V19.3381Z" fill="#231815"/>
<path d="M100.405 36.7053H18.3112V43.7304H100.405V36.7053Z" fill="#231815"/>
<path d="M99.6075 52.7581H17.5132V59.7831H99.6075V52.7581Z" fill="#231815"/>
</g>
</svg>
