<svg width="90" height="82" viewBox="0 0 90 82" fill="none" xmlns="http://www.w3.org/2000/svg">
<path d="M13.7218 71.5639H9.02887V69.6907H13.7218V68.2178H8.80478V58.906H20.612V68.2178H15.595V69.6907H20.3879V71.5639H15.595V73.0869L18.4168 72.8867C19.2153 72.8867 19.9637 72.804 20.6643 72.6365V74.4836L14.7487 74.9579C12.1031 74.9579 9.98834 75.0754 8.40664 75.3082L7.95628 73.287L10.4278 73.2609L13.7239 73.1608V71.5639H13.7218ZM11.2002 76.2329C11.1327 76.5831 11.0827 76.8747 11.0501 77.1075C10.7498 78.7044 10.3343 80.0772 9.80123 81.226L7.9541 80.4275C8.63726 79.2135 9.13548 77.7319 9.45095 75.9848L11.2002 76.2329ZM10.5758 66.4207H13.7218V60.7292H10.5758V66.4207ZM11.0501 62.0781L12.1988 61.7539L12.697 63.3008C12.8123 63.6837 12.9385 64.1993 13.0712 64.8477C13.0886 64.9303 13.1126 65.0478 13.1452 65.198L11.8463 65.5983L11.5222 63.8512C11.359 63.068 11.2002 62.4762 11.0501 62.0781ZM12.0987 80.9497C12.164 80.384 12.1988 79.5768 12.1988 78.5282C12.1988 77.6122 12.1662 76.8399 12.0987 76.2067L13.7957 76.0827C13.9458 76.8312 14.0198 77.5643 14.0198 78.2801C14.0198 79.6116 14.0285 80.4362 14.0438 80.7517L12.0987 80.9497ZM15.6929 80.5254C15.5928 78.811 15.3774 77.3468 15.0445 76.1306L16.6676 75.8804C17.0679 77.1619 17.3507 78.5673 17.5161 80.099L15.6929 80.5254ZM15.595 66.4207H18.8411V60.7292H15.595V66.4207ZM16.7677 63.3247L17.0918 61.6777L18.2906 61.978L17.9904 63.8752C17.8229 64.7911 17.6901 65.372 17.5901 65.6222L16.2172 65.2219L16.4174 64.6236C16.6001 64.0405 16.7176 63.6075 16.7677 63.3247ZM19.1391 79.851L19.0151 79.2265C18.915 78.761 18.791 78.3019 18.6409 77.8537L17.9664 75.8565L19.4394 75.5062C20.1377 77.003 20.5968 78.2345 20.8122 79.2004L19.1391 79.851ZM24.2062 69.2164V58.2816H26.4036V62.4501H30.8724V64.4974H26.4036V69.2164" fill="#FAC200"/>
<path d="M27.9508 71.2722H23.2079L20.8364 75.3798L23.2079 79.4875H27.9508L30.3223 75.3798L27.9508 71.2722ZM26.9913 77.8231H24.1695L22.7597 75.3798L24.1695 72.9366H26.9913L28.4012 75.3798L26.9913 77.8231Z" fill="#FAC200"/>
<path d="M72.0141 63.675C74.8424 65.5069 78.1059 66.9211 81.8002 67.9197L80.8755 70.2411C80.56 70.1258 80.2924 70.0322 80.077 69.967C78.4453 69.4013 76.8658 68.7182 75.3341 67.9197V69.2686H65.374V68.0698C63.975 68.7682 62.1693 69.4688 59.9566 70.1671L58.834 67.8697C62.711 67.1713 66.1311 65.6635 69.0944 63.3508H70.7413L69.8428 62.6024C71.0568 61.5711 72.0315 60.1309 72.7647 58.2837L75.1122 58.5078L74.738 59.4064L74.2876 60.2309H81.5782V62.2021H77.7339L78.1081 63.0005C78.1581 63.118 78.2734 63.4596 78.4584 64.0231C78.491 64.1058 78.5323 64.2146 78.5824 64.3473L76.1848 64.7476L75.7845 63.1746C75.7018 62.8243 75.6104 62.5502 75.5104 62.35L75.4364 62.1999H73.0888C73.0388 62.2826 72.9975 62.3587 72.9648 62.424C72.6298 63.0267 72.3143 63.4422 72.0141 63.675ZM65.1738 64.6736L64.7996 63.1006C64.6821 62.6176 64.5821 62.3196 64.4994 62.2021H63.2266C62.6609 63.2333 61.869 64.2581 60.8552 65.2719L58.9319 63.625C60.5462 62.2935 61.8277 60.5138 62.7763 58.2816L65.1477 58.5818L64.7474 59.4564L64.3471 60.2309H70.1648V62.2021H66.7446L67.0449 63.0267L67.3691 64.1493L65.1738 64.6736ZM66.4466 76.0566L65.9484 77.0553C67.3299 77.4208 68.6201 77.9386 69.8188 78.6021L68.57 80.3753C67.6541 79.7596 66.5401 79.1939 65.2239 78.6783C65.1412 78.6457 65.0411 78.6043 64.9236 78.5543C64.0403 79.653 62.5261 80.5428 60.3809 81.226L59.2082 79.3027C61.7885 78.6369 63.4768 77.5556 64.2753 76.0566H66.4466V76.0566ZM70.3671 65.0239C69.3685 65.8898 68.2371 66.6556 66.9709 67.3214L66.7207 67.4454H74.3094C73.2107 66.9298 72.0706 66.2466 70.8893 65.3981C70.7565 65.298 70.5825 65.1718 70.3671 65.0239ZM76.2588 76.0566L75.8846 76.805C77.7991 77.4882 79.4961 78.2693 80.9778 79.1526L79.755 81.1498C78.4562 80.2665 76.8266 79.3767 74.862 78.4781C74.0287 79.5094 72.6733 80.4253 70.7935 81.2238L69.6209 79.2766L70.5956 78.9524C72.31 78.2867 73.4826 77.3207 74.1158 76.0566H76.2588V76.0566Z" fill="#FAC200"/>
<path d="M67.145 70.0474H63.8989L62.2759 72.8583L63.8989 75.6692H67.145L68.768 72.8583L67.145 70.0474ZM66.1855 74.0049H64.8627L64.2013 72.8583L64.8627 71.7117H66.1855L66.8469 72.8583L66.1855 74.0049Z" fill="#FAC200"/>
<path d="M76.966 70.0474H73.72L72.0969 72.8583L73.72 75.6692H76.966L78.5891 72.8583L76.966 70.0474ZM76.0044 74.0049H74.6816L74.0202 72.8583L74.6816 71.7117H76.0044L76.6658 72.8583L76.0044 74.0049Z" fill="#FAC200"/>
<path d="M39.1727 71.5508H34.4798V69.6776H39.1727V68.2047H41.0459V69.6776H45.8389V71.5508H41.0459V73.0738L43.8677 72.8736C44.6662 72.8736 45.4146 72.791 46.1152 72.6234V74.4706L40.1996 74.9449C37.554 74.9449 35.4393 75.0623 33.8576 75.2951L33.4072 73.274L35.8787 73.2479L39.1749 73.1478V71.5508H39.1727ZM36.6511 76.2198C36.5837 76.5701 36.5336 76.8616 36.501 77.0944C36.2007 78.6913 35.7852 80.0642 35.2522 81.2129L33.405 80.4144C34.0882 79.2004 34.5864 77.7188 34.9019 75.9718L36.6511 76.2198ZM37.5496 80.9388C37.6149 80.3731 37.6497 79.5659 37.6497 78.5173C37.6497 77.6013 37.6171 76.829 37.5496 76.1959L39.2467 76.0718C39.3968 76.8203 39.4707 77.5535 39.4707 78.2693C39.4707 79.6008 39.4794 80.4253 39.4947 80.7408L37.5496 80.9388ZM41.146 80.5123C41.0459 78.7979 40.8305 77.3337 40.4977 76.1175L42.1207 75.8673C42.521 77.1488 42.8038 78.5543 42.9692 80.0859L41.146 80.5123ZM44.5901 79.8401L44.466 79.2157C44.366 78.7501 44.242 78.291 44.0918 77.8428L43.4174 75.8456L44.8903 75.4953C45.5887 76.9921 46.0477 78.2257 46.2631 79.1896L44.5901 79.8401ZM49.6571 69.2033V58.2685H51.8546V62.437H56.3233V64.4843H51.8546V69.2033H55.3987V81.2368H53.2774V79.5137H49.0088V81.2368H46.8875V69.2033H49.6571V69.2033ZM53.2774 71.2267H49.0088V77.4925H53.2774V71.2267Z" fill="#FAC200"/>
<path d="M42.7514 58.3663H37.3428L34.6384 63.0505L37.3428 67.7347H42.7514L45.4558 63.0505L42.7514 58.3663ZM41.7898 66.0703H38.3022L36.5595 63.0505L38.3022 60.0307H41.7898L43.5325 63.0505L41.7898 66.0703Z" fill="#FAC200"/>
<path d="M39.0074 62.2585H38.0914L37.6345 63.0505L38.0914 63.8446H39.0074L39.4642 63.0505L39.0074 62.2585Z" fill="#FAC200"/>
<path d="M42.0027 62.2585H41.0868L40.6299 63.0505L41.0868 63.8446H42.0027L42.4596 63.0505L42.0027 62.2585Z" fill="#FAC200"/>
<path d="M21.6842 50.9495C15.8622 50.9495 10.9561 47.7121 9.47446 42.893C8.07117 38.3285 10.0249 33.1831 14.3479 29.8783C13.9498 29.7826 13.5582 29.6738 13.1796 29.5585C4.0027 26.7366 -1.51257 18.0884 0.887169 10.2757C2.71689 4.32526 8.77826 0.326416 15.9731 0.326416C17.9552 0.326416 19.9437 0.628832 21.8866 1.22714C31.0656 4.04678 36.5809 12.6972 34.1812 20.5078C33.3327 23.2665 31.5943 25.6336 29.1315 27.3915C32.7474 28.6686 35.3821 31.2729 36.409 34.6169C38.3519 40.9393 33.8918 47.9405 26.4663 50.2228C24.8955 50.7058 23.2877 50.9495 21.6842 50.9495Z" fill="white"/>
<path d="M15.9733 0.652695C17.8748 0.652695 19.8372 0.937706 21.791 1.53819C30.8134 4.30997 36.2199 12.7602 33.868 20.412C32.9499 23.397 30.9853 25.8163 28.3962 27.4959C32.0731 28.6033 35.0037 31.1619 36.0937 34.7125C37.9865 40.874 33.633 47.6794 26.3685 49.9116C24.7955 50.3946 23.2138 50.6252 21.6822 50.6252C16.1451 50.6252 11.2695 47.625 9.78571 42.7994C8.31497 38.013 10.6168 32.8393 15.1226 29.7216C14.5069 29.5932 13.8912 29.4387 13.2755 29.2495C4.2552 26.4733 -1.15129 18.0231 1.19841 10.3713C3.04119 4.37741 9.0982 0.652695 15.9733 0.652695ZM15.9733 0C12.4269 0 9.0982 0.939881 6.34383 2.71521C3.50895 4.54711 1.51388 7.12743 0.576176 10.1799C-1.87796 18.1623 3.73522 26.9955 13.0862 29.8695C13.2668 29.9239 13.4495 29.9783 13.6366 30.0305C11.8417 31.523 10.4645 33.3506 9.61383 35.3804C8.56299 37.8933 8.40635 40.5237 9.16565 42.9887C10.6886 47.947 15.7209 51.2757 21.6865 51.2757C23.3204 51.2757 24.963 51.0256 26.5643 50.5339C30.2259 49.409 33.3001 47.1377 35.2191 44.1353C37.1619 41.1002 37.695 37.6845 36.7224 34.5189C35.7195 31.2511 33.2305 28.6729 29.806 27.2957C32.0731 25.5378 33.6831 23.2447 34.4946 20.6012C35.689 16.7134 35.032 12.5209 32.6453 8.79181C30.2803 5.09755 26.4947 2.29966 21.9824 0.911598C20.0091 0.306767 17.9879 0 15.9733 0Z" fill="#2FBDF0"/>
<path d="M68.0692 50.9494C66.4679 50.9494 64.8579 50.7057 63.2871 50.2227C55.8616 47.9405 51.4015 40.9392 53.3444 34.6168C54.3713 31.2728 57.006 28.6686 60.6219 27.3915C58.1591 25.6335 56.4185 23.2664 55.5722 20.5077C53.1725 12.6971 58.6878 4.04672 67.8668 1.22707C69.8097 0.630946 71.8004 0.326355 73.7802 0.326355C80.9751 0.326355 87.0365 4.3252 88.8662 10.2756C91.266 18.0862 85.7507 26.7366 76.5716 29.5562C76.193 29.6715 75.8014 29.7803 75.4033 29.8761C79.7263 33.1787 81.68 38.3263 80.2767 42.8908C78.7973 47.712 73.8912 50.9494 68.0692 50.9494Z" fill="white"/>
<path d="M73.78 0.652634C80.6551 0.652634 86.7121 4.37735 88.5527 10.3713C90.9046 18.023 85.4959 26.4733 76.4756 29.245C75.8599 29.4343 75.242 29.5888 74.6285 29.7172C79.1343 32.8349 81.4361 38.0086 79.9654 42.795C78.4816 47.6228 73.6038 50.6208 68.0689 50.6208C66.5373 50.6208 64.9577 50.3924 63.3826 49.9072C56.1181 47.675 51.7624 40.8695 53.6574 34.7081C54.7496 31.1574 57.678 28.5967 61.3549 27.4915C58.7658 25.8119 56.8012 23.3925 55.8831 20.4075C53.5312 12.7558 58.9399 4.30555 67.9601 1.53377C69.9161 0.937645 71.8807 0.652634 73.78 0.652634ZM73.7822 -6.10352e-05V0.652634V-6.10352e-05C71.7654 -6.10352e-05 69.7442 0.306706 67.7709 0.913712C63.2607 2.2996 59.4729 5.09749 57.108 8.79392C54.7213 12.523 54.0643 16.7176 55.2587 20.6034C56.0702 23.2468 57.6802 25.5399 59.9472 27.2978C56.5227 28.675 54.036 31.2553 53.0308 34.521C52.0583 37.6866 52.5913 41.1023 54.5342 44.1374C56.4553 47.1376 59.5273 49.4111 63.1889 50.536C64.7902 51.0277 66.4307 51.2779 68.0667 51.2779C74.0324 51.2779 79.0647 47.9469 80.5876 42.9908C81.3448 40.5258 81.1903 37.8933 80.1394 35.3826C79.2909 33.3527 77.9116 31.5251 76.1167 30.0326C76.3016 29.9804 76.4865 29.9282 76.6671 29.8716C86.0181 26.9976 91.6312 18.1666 89.1771 10.182C88.2394 7.12955 86.2443 4.54923 83.4073 2.71733C80.6572 0.93982 77.3285 -6.10352e-05 73.7822 -6.10352e-05Z" fill="#2FBDF0"/>
<path d="M70.1665 29.491L57.5216 7.59088H32.2318L19.5869 29.491L31.8576 50.7427L40.4188 35.9614C40.0511 35.6024 39.8226 35.0998 39.8226 34.545C39.8226 33.4507 40.7103 32.563 41.8047 32.563C42.899 32.563 43.7867 33.4507 43.7867 34.545C43.7867 35.6394 42.899 36.527 41.8047 36.527C41.6828 36.527 41.5653 36.514 41.45 36.4944L32.8214 51.3933H57.5216L70.1665 29.491Z" fill="#FAC200"/>
<mask id="mask0_327_61" style="mask-type:alpha" maskUnits="userSpaceOnUse" x="19" y="7" width="52" height="45">
<path d="M70.1665 29.491L57.5216 7.59088H32.2318L19.5869 29.491L31.8576 50.7427L40.4188 35.9614C40.0511 35.6024 39.8226 35.0998 39.8226 34.545C39.8226 33.4507 40.7103 32.563 41.8047 32.563C42.899 32.563 43.7867 33.4507 43.7867 34.545C43.7867 35.6394 42.899 36.527 41.8047 36.527C41.6828 36.527 41.5653 36.514 41.45 36.4944L32.8214 51.3933H57.5216L70.1665 29.491Z" fill="#FAC200"/>
</mask>
<g mask="url(#mask0_327_61)">
<path d="M69.0589 13.9329H18.5164V19.1849H69.0589V13.9329Z" fill="#231815"/>
<path d="M74.5068 26.9152H13.1643V32.1672H74.5068V26.9152Z" fill="#231815"/>
<path d="M73.9126 38.9072H12.5701V44.1592H73.9126V38.9072Z" fill="#231815"/>
</g>
</svg>
