<svg width="364" height="185" viewBox="0 0 364 185" fill="none" xmlns="http://www.w3.org/2000/svg">
<path d="M286 139L325.837 162V208L286 231L246.163 208V162L286 139Z" stroke="#FAC200"/>
<path d="M246 70L285.837 93V139L246 162L206.163 139V93L246 70Z" fill="#FFFCDB" stroke="#FAC200"/>
<path d="M206 139L245.837 162V208L206 231L166.163 208V162L206 139Z" fill="#FFE100" fill-opacity="0.55" stroke="#FFE100"/>
<path d="M166 70L205.837 93V139L166 162L126.163 139V93L166 70Z" stroke="#FAC200"/>
<path d="M246 116L285.837 139V185L246 208L206.163 185V139L246 116Z" stroke="#FAC200"/>
<path d="M206 47L245.837 70V116L206 139L166.163 116V70L206 47Z" fill="#FFE100" fill-opacity="0.55" stroke="#FAC200"/>
<path d="M166 116L205.837 139V185L166 208L126.163 185V139L166 116Z" stroke="#FAC200"/>
<path d="M126 47L165.837 70V116L126 139L86.1628 116V70L126 47Z" fill="#FFFCDB" stroke="#FAC200"/>
<path d="M206 1L245.837 24V70L206 93L166.163 70V24L206 1Z" stroke="#FAC200"/>
<path d="M126 93L165.837 116V162L126 185L86.1628 162V116L126 93Z" stroke="#FAC200"/>
<path d="M46 93L85.8372 116V162L46 185L6.16283 162V116L46 93Z" stroke="#FAC200"/>
<path d="M126 139L165.837 162V208L126 231L86.1628 208V162L126 139Z" stroke="#FAC200"/>
<path d="M86 162L125.837 185V231L86 254L46.1628 231V185L86 162Z" stroke="#FAC200"/>
<path d="M166 140L185.053 151V173L166 184L146.947 173V151L166 140Z" stroke="#FAC200"/>
<path d="M86 162L105.919 173.5V196.5L86 208L66.0814 196.5V173.5L86 162Z" fill="#FFE100" stroke="#FAC200"/>
<path d="M46 93L65.9186 104.5V127.5L46 139L26.0814 127.5V104.5L46 93Z" fill="#FFE100" stroke="#FAC200"/>
<path d="M66 116L85.9186 127.5V150.5L66 162L46.0814 150.5V127.5L66 116Z" stroke="#FAC200"/>
<path d="M246 94L265.053 105V127L246 138L226.947 127V105L246 94Z" fill="#FFE100" fill-opacity="0.55" stroke="#FFE100"/>
<path d="M206 1L225.919 12.5V35.5L206 47L186.081 35.5V12.5L206 1Z" stroke="#FAC200"/>
<path d="M86 70L105.919 81.5V104.5L86 116L66.0814 104.5V81.5L86 70Z" stroke="#FFE100"/>
<path d="M246 2L285.837 25V71L246 94L206.163 71V25L246 2Z" fill="#FFFCDB" fill-opacity="0.57" stroke="#FFE100"/>
<path d="M286 49L305.053 60V82L286 93L266.947 82V60L286 49Z" stroke="#FAC200"/>
<path d="M286 3L305.053 14V36L286 47L266.947 36V14L286 3Z" fill="#FFE100" fill-opacity="0.55" stroke="#FAC200"/>
<path d="M166 55L178.99 62.5V77.5L166 85L153.01 77.5V62.5L166 55Z" stroke="#FFE100"/>
<path d="M126 124L138.99 131.5V146.5L126 154L113.01 146.5V131.5L126 124Z" stroke="#FFE100"/>
<path d="M326 116L365.837 139V185L326 208L286.163 185V139L326 116Z" stroke="#FAC200"/>
<path d="M326 70L365.837 93V139L326 162L286.163 139V93L326 70Z" fill="#FFE100" stroke="#FAC200"/>
</svg>
