<svg width="271" height="80" viewBox="0 0 271 80" fill="none" xmlns="http://www.w3.org/2000/svg">
<path d="M86.8182 65.6591C83.1515 65.6591 80 64.9091 77.3636 63.4091C74.7424 61.8939 72.7197 59.7879 71.2955 57.0909C69.8864 54.3788 69.1818 51.2348 69.1818 47.6591C69.1818 44.0682 69.8864 40.9242 71.2955 38.2273C72.7197 35.5152 74.7424 33.4091 77.3636 31.9091C80 30.3939 83.1515 29.6364 86.8182 29.6364C90.4848 29.6364 93.6288 30.3939 96.25 31.9091C98.8864 33.4091 100.909 35.5152 102.318 38.2273C103.742 40.9242 104.455 44.0682 104.455 47.6591C104.455 51.2348 103.742 54.3788 102.318 57.0909C100.909 59.7879 98.8864 61.8939 96.25 63.4091C93.6288 64.9091 90.4848 65.6591 86.8182 65.6591ZM86.8864 57.2727C88.2197 57.2727 89.3485 56.8636 90.2727 56.0455C91.197 55.2273 91.9015 54.0909 92.3864 52.6364C92.8864 51.1818 93.1364 49.5 93.1364 47.5909C93.1364 45.6515 92.8864 43.9545 92.3864 42.5C91.9015 41.0455 91.197 39.9091 90.2727 39.0909C89.3485 38.2727 88.2197 37.8636 86.8864 37.8636C85.5076 37.8636 84.3409 38.2727 83.3864 39.0909C82.447 39.9091 81.7273 41.0455 81.2273 42.5C80.7424 43.9545 80.5 45.6515 80.5 47.5909C80.5 49.5 80.7424 51.1818 81.2273 52.6364C81.7273 54.0909 82.447 55.2273 83.3864 56.0455C84.3409 56.8636 85.5076 57.2727 86.8864 57.2727ZM110.148 78.0909V30.0909H121.148V36.0682H121.489C121.943 35.0076 122.587 33.9848 123.42 33C124.269 32.0152 125.345 31.2121 126.648 30.5909C127.966 29.9545 129.542 29.6364 131.375 29.6364C133.799 29.6364 136.064 30.2727 138.17 31.5455C140.292 32.8182 142.004 34.7803 143.307 37.4318C144.61 40.0833 145.261 43.4621 145.261 47.5682C145.261 51.5227 144.633 54.8333 143.375 57.5C142.133 60.1667 140.451 62.1667 138.33 63.5C136.223 64.8333 133.883 65.5 131.307 65.5C129.549 65.5 128.027 65.2121 126.739 64.6364C125.451 64.0606 124.367 63.303 123.489 62.3636C122.625 61.4242 121.958 60.4167 121.489 59.3409H121.261V78.0909H110.148ZM121.034 47.5455C121.034 49.4242 121.284 51.0606 121.784 52.4545C122.299 53.8485 123.034 54.9318 123.989 55.7045C124.958 56.4621 126.117 56.8409 127.466 56.8409C128.83 56.8409 129.989 56.4621 130.943 55.7045C131.898 54.9318 132.617 53.8485 133.102 52.4545C133.602 51.0606 133.852 49.4242 133.852 47.5455C133.852 45.6667 133.602 44.0379 133.102 42.6591C132.617 41.2803 131.898 40.2121 130.943 39.4545C130.004 38.697 128.845 38.3182 127.466 38.3182C126.102 38.3182 124.943 38.6894 123.989 39.4318C123.034 40.1742 122.299 41.2348 121.784 42.6136C121.284 43.9924 121.034 45.6364 121.034 47.5455ZM181.562 40.75L171.358 41.0227C171.252 40.2955 170.964 39.6515 170.494 39.0909C170.025 38.5152 169.411 38.0682 168.653 37.75C167.911 37.4167 167.047 37.25 166.062 37.25C164.775 37.25 163.676 37.5076 162.767 38.0227C161.873 38.5379 161.434 39.2348 161.449 40.1136C161.434 40.7955 161.706 41.3864 162.267 41.8864C162.843 42.3864 163.866 42.7879 165.335 43.0909L172.062 44.3636C175.547 45.0303 178.138 46.1364 179.835 47.6818C181.547 49.2273 182.411 51.2727 182.426 53.8182C182.411 56.2121 181.699 58.2955 180.29 60.0682C178.896 61.8409 176.987 63.2197 174.562 64.2045C172.138 65.1742 169.366 65.6591 166.244 65.6591C161.259 65.6591 157.328 64.6364 154.449 62.5909C151.585 60.5303 149.949 57.7727 149.54 54.3182L160.517 54.0455C160.759 55.3182 161.388 56.2879 162.403 56.9545C163.419 57.6212 164.714 57.9545 166.29 57.9545C167.714 57.9545 168.873 57.6894 169.767 57.1591C170.661 56.6288 171.116 55.9242 171.131 55.0455C171.116 54.2576 170.767 53.6288 170.085 53.1591C169.403 52.6742 168.335 52.2955 166.881 52.0227L160.79 50.8636C157.29 50.2273 154.684 49.053 152.972 47.3409C151.259 45.6136 150.411 43.4167 150.426 40.75C150.411 38.4167 151.032 36.4242 152.29 34.7727C153.547 33.1061 155.335 31.8333 157.653 30.9545C159.972 30.0758 162.706 29.6364 165.858 29.6364C170.585 29.6364 174.313 30.6288 177.04 32.6136C179.767 34.5833 181.275 37.2955 181.562 40.75ZM200.966 18.4545L199.92 50.75H190.58L189.534 18.4545H200.966ZM195.239 65.6591C193.617 65.6591 192.223 65.0833 191.057 63.9318C189.905 62.7803 189.33 61.3864 189.33 59.75C189.33 58.1439 189.905 56.7727 191.057 55.6364C192.223 54.4848 193.617 53.9091 195.239 53.9091C196.799 53.9091 198.17 54.4848 199.352 55.6364C200.549 56.7727 201.148 58.1439 201.148 59.75C201.148 60.8409 200.867 61.8333 200.307 62.7273C199.761 63.6212 199.042 64.3333 198.148 64.8636C197.269 65.3939 196.299 65.6591 195.239 65.6591ZM234.797 48.552H241.389L243.053 26.664L243.373 17.128H232.813L233.133 26.664L234.797 48.552ZM238.125 65.64C241.325 65.64 243.757 63.272 243.757 59.944C243.757 56.616 241.325 54.312 238.125 54.312C234.861 54.312 232.429 56.616 232.429 59.944C232.429 63.272 234.797 65.64 238.125 65.64Z" fill="#FAC200"/>
<path fill-rule="evenodd" clip-rule="evenodd" d="M0.000106812 17.25L29.878 0L59.7559 17.25V51.75L29.878 69L0.000106812 51.75V17.25ZM8.96314 22.4251L29.8777 10.3501L50.7922 22.4251V46.5751L29.8777 58.6501L8.96314 46.5751V22.4251Z" fill="#FAC200"/>
</svg>
