<svg width="70" height="70" viewBox="0 0 70 70" fill="none" xmlns="http://www.w3.org/2000/svg">
<path d="M0 35L17.5 4.68911H52.5L70 35L52.5 65.3109H17.5L0 35Z" fill="#FAC200"/>
<path d="M32.7917 50.5C32.7917 50.5 30.25 50.5 30.25 47.9583C30.25 45.4167 32.7917 37.7917 42.9583 37.7917C53.125 37.7917 55.6667 45.4167 55.6667 47.9583C55.6667 50.5 53.125 50.5 53.125 50.5H32.7917ZM42.9583 35.25C44.9806 35.25 46.9201 34.4467 48.35 33.0167C49.78 31.5867 50.5833 29.6473 50.5833 27.625C50.5833 25.6027 49.78 23.6633 48.35 22.2333C46.9201 20.8033 44.9806 20 42.9583 20C40.9361 20 38.9966 20.8033 37.5666 22.2333C36.1367 23.6633 35.3333 25.6027 35.3333 27.625C35.3333 29.6473 36.1367 31.5867 37.5666 33.0167C38.9966 34.4467 40.9361 35.25 42.9583 35.25Z" fill="white"/>
<path fill-rule="evenodd" clip-rule="evenodd" d="M28.2573 50.4998C27.8805 49.7063 27.6926 48.8363 27.7083 47.9581C27.7083 44.5141 29.4367 40.9685 32.629 38.5031C31.0356 38.0121 29.3755 37.772 27.7083 37.7914C17.5417 37.7914 15 45.4164 15 47.9581C15 50.4998 17.5417 50.4998 17.5417 50.4998H28.2573Z" fill="white"/>
<path d="M26.4372 35.25C28.1224 35.25 29.7386 34.5805 30.9303 33.3889C32.1219 32.1972 32.7913 30.581 32.7913 28.8958C32.7913 27.2106 32.1219 25.5944 30.9303 24.4027C29.7386 23.2111 28.1224 22.5416 26.4372 22.5416C24.7519 22.5416 23.1357 23.2111 21.9441 24.4027C20.7525 25.5944 20.083 27.2106 20.083 28.8958C20.083 30.581 20.7525 32.1972 21.9441 33.3889C23.1357 34.5805 24.7519 35.25 26.4372 35.25Z" fill="white"/>
</svg>
