<svg width="221" height="838" viewBox="0 0 221 838" fill="none" xmlns="http://www.w3.org/2000/svg">
<path d="M98 14C98 6.82031 103.82 1 111 1V1C118.18 1 124 6.8203 124 14V418H98V14Z" fill="#FAC200" stroke="#FAC200"/>
<path d="M98 822C98 829.18 103.82 835 111 835V835C118.18 835 124 829.18 124 822L124 418L98.0001 418L98 822Z" stroke="#2FBDF0" stroke-width="5"/>
<path d="M3 170.5L56.75 77.4023H164.25L218 170.5L164.25 263.598H56.75L3 170.5Z" fill="#FAC200" stroke="#FAC200" stroke-width="5"/>
<path d="M3 417.5L56.75 324.402H164.25L218 417.5L164.25 510.598H56.75L3 417.5Z" fill="white" stroke="#2FBDF0" stroke-width="5"/>
<path d="M3 664.5L56.75 571.402H164.25L218 664.5L164.25 757.598H56.75L3 664.5Z" fill="white" stroke="#2FBDF0" stroke-width="5"/>
</svg>
