<svg width="114" height="114" viewBox="0 0 114 114" fill="none" xmlns="http://www.w3.org/2000/svg">
<circle cx="56.8793" cy="56.8793" r="53.8793" stroke="#FAC200" stroke-width="5"/>
<path d="M76.4 43.6L62.4 29.6C62 29.2 61.6 29 61 29H41C38.8 29 37 30.8 37 33V81C37 83.2 38.8 85 41 85H73C75.2 85 77 83.2 77 81V45C77 44.4 76.8 44 76.4 43.6ZM61 33.8L72.2 45H61V33.8ZM73 81H41V33H57V45C57 47.2 58.8 49 61 49H73V81Z" fill="#FFC700"/>
<path d="M45 69H69V73H45V69ZM45 57H69V61H45V57Z" fill="#FFC700"/>
</svg>
