<svg width="114" height="114" viewBox="0 0 114 114" fill="none" xmlns="http://www.w3.org/2000/svg">
<path d="M75.0285 44.7705V52.995C75.0285 52.995 69.5546 53.0225 69.5271 52.995V44.7705H61.2751C61.2751 44.7705 61.3026 39.2966 61.2751 39.2691H69.5271V31.0171H75.0285V39.2691H83.2805V44.7705H75.0285ZM66.7764 55.7732V47.5212H58.5244V39.2691H36.5189C33.4932 39.2691 31.0176 41.7447 31.0176 44.7705V77.7787C31.0176 80.8044 33.4932 83.28 36.5189 83.28H69.5271C72.5529 83.28 75.0285 80.8044 75.0285 77.7787V55.7732H66.7764ZM36.5189 77.7787L44.771 66.7759L50.2723 75.028L58.5244 64.0253L69.5271 77.7787H36.5189Z" fill="#FFC700"/>
<circle cx="56.8793" cy="56.8793" r="53.8793" stroke="#FAC200" stroke-width="5"/>
</svg>
