<svg width="30" height="27" viewBox="0 0 30 27" fill="none" xmlns="http://www.w3.org/2000/svg">
<path d="M0.143396 24.4375L13.9559 0.53125C14.1618 0.175977 14.517 0 14.8756 0C15.2342 0 15.5928 0.175977 15.7954 0.53125L29.6079 24.4375C30.0162 25.148 29.5049 26.0312 28.6881 26.0312H1.06312C0.246326 26.0312 -0.265001 25.148 0.143396 24.4375ZM15.9381 9.82812C15.9381 9.68203 15.8186 9.5625 15.6725 9.5625H14.0787C13.9327 9.5625 13.8131 9.68203 13.8131 9.82812V15.9375C13.8131 16.0836 13.9327 16.2031 14.0787 16.2031H15.6725C15.8186 16.2031 15.9381 16.0836 15.9381 15.9375V9.82812ZM14.8756 21.5156C15.2927 21.5071 15.6898 21.3355 15.9817 21.0375C16.2737 20.7395 16.4372 20.339 16.4372 19.9219C16.4372 19.5047 16.2737 19.1042 15.9817 18.8063C15.6898 18.5083 15.2927 18.3366 14.8756 18.3281C14.4586 18.3366 14.0615 18.5083 13.7695 18.8063C13.4776 19.1042 13.3141 19.5047 13.3141 19.9219C13.3141 20.339 13.4776 20.7395 13.7695 21.0375C14.0615 21.3355 14.4586 21.5071 14.8756 21.5156Z" fill="#F45151"/>
</svg>
