<svg width="334" height="105" viewBox="0 0 334 105" fill="none" xmlns="http://www.w3.org/2000/svg">
<path d="M26.3598 60.4772H5.15098V52.0162H26.3598V45.3603H4.13569V3.28112H57.4961V45.3603H34.8207V52.0162H56.4808V60.4772H34.8207V67.3587L47.5686 66.4562C51.1786 66.4562 54.563 66.0802 57.7217 65.3281V73.6762L30.9851 75.8197C19.0269 75.8197 9.47547 76.3462 2.33066 77.3991L0.300049 68.2612L11.4685 68.1484L26.3598 67.6972V60.4772ZM14.9657 81.5731C14.6649 83.1525 14.4392 84.4687 14.2888 85.5216C12.9351 92.7416 11.0549 98.9463 8.64819 104.136L0.300049 100.526C3.3836 95.0355 5.63985 88.3419 7.06881 80.445L14.9657 81.5731ZM12.1454 37.2378H26.3598V11.5164H12.1454V37.2378ZM14.2888 17.6083L19.4782 16.1418L21.7345 23.1362C22.2609 24.866 22.825 27.1974 23.4267 30.1305C23.5019 30.5066 23.6147 31.033 23.7651 31.7099L17.8988 33.5149L16.4323 25.618C15.6802 22.0832 14.9657 19.4133 14.2888 17.6083ZM19.027 102.895C19.3278 100.338 19.4782 96.69 19.4782 91.9519C19.4782 87.8154 19.3278 84.3182 19.027 81.4603L26.6982 80.8963C27.3751 84.2806 27.7135 87.5898 27.7135 90.8238C27.7135 96.8405 27.7511 100.563 27.8264 101.992L19.027 102.895ZM35.272 100.977C34.8207 93.2305 33.843 86.6121 32.3389 81.1219L39.6717 79.9938C41.4767 85.7848 42.7552 92.1399 43.5073 99.0591L35.272 100.977ZM34.8207 37.2378H49.4864V11.5164H34.8207V37.2378ZM40.1229 23.249L41.5895 15.8033L47.0045 17.1571L45.6507 25.7308C44.8987 29.8673 44.297 32.4996 43.8457 33.6277L37.6411 31.8227L38.5436 29.1152C39.3709 26.4829 39.8973 24.5275 40.1229 23.249ZM50.8401 97.931L50.2761 95.1107C49.8248 93.0048 49.2607 90.9366 48.5839 88.906L45.5379 79.8809L52.1939 78.3016C55.3526 85.0703 57.4209 90.6358 58.3986 94.9978L50.8401 97.931ZM73.7411 49.8728V0.4608H83.6686V19.3005H103.862V28.5512H83.6686V49.8728" fill="#FAC200"/>
<path d="M90.6631 59.1535H69.2287L58.5115 77.7149L69.2287 96.2764H90.6631L101.38 77.7149L90.6631 59.1535ZM86.316 88.7631H73.5682L67.1905 77.7225L73.5682 66.6819H86.316L92.6937 77.7225L86.316 88.7631Z" fill="#FAC200"/>
<path d="M289.777 24.8284C302.563 33.1013 317.304 39.494 334 44.0065L329.826 54.4981C328.397 53.9716 327.194 53.558 326.216 53.2571C318.845 50.7001 311.701 47.6165 304.782 44.0065V50.0984H259.769V44.6834C253.452 47.8421 245.292 51.0009 235.289 54.1597L230.212 43.7809C247.736 40.6221 263.191 33.8158 276.578 23.3618H284.024L279.963 19.9774C285.453 15.3145 289.853 8.80894 293.162 0.4608L303.766 1.47612L302.074 5.53737L300.043 9.26019H332.985V18.1724H315.611L317.304 21.7824C317.529 22.3089 318.056 23.8506 318.883 26.4077C319.034 26.7838 319.222 27.2726 319.447 27.8743L308.617 29.6793L306.812 22.5721C306.436 20.9927 306.022 19.7518 305.571 18.8493L305.233 18.1724H294.628C294.403 18.5484 294.215 18.8869 294.064 19.1877C292.56 21.8952 291.131 23.7754 289.777 24.8284ZM258.867 29.3409L257.175 22.2337C256.648 20.0526 256.197 18.6989 255.821 18.1724H250.067C247.51 22.8353 243.938 27.4606 239.35 32.0483L230.664 24.6027C237.959 18.586 243.75 10.5387 248.037 0.4608L258.754 1.81455L256.949 5.763L255.144 9.26019H281.429V18.1724H265.974L267.328 21.8952L268.794 26.9718L258.867 29.3409ZM264.62 80.7835L262.364 85.296C268.606 86.9505 274.435 89.282 279.85 92.2903L274.209 100.3C270.073 97.5173 265.034 94.9603 259.092 92.6288C258.716 92.4784 258.265 92.2904 257.739 92.0647C253.753 97.0285 246.909 101.052 237.207 104.136L231.904 95.4491C243.562 92.4408 251.195 87.5522 254.805 80.7835H264.62ZM282.332 30.9202C277.819 34.8311 272.705 38.2907 266.989 41.299L265.861 41.8631H300.156C295.192 39.5316 290.041 36.448 284.701 32.6124C284.099 32.1612 283.309 31.5971 282.332 30.9202ZM308.956 80.7835L307.263 84.1678C315.912 87.2514 323.584 90.7862 330.277 94.7722L324.749 103.797C318.883 99.8112 311.513 95.7875 302.638 91.7263C298.878 96.3892 292.748 100.526 284.25 104.136L278.947 95.3363L283.347 93.8697C291.094 90.8614 296.396 86.4993 299.254 80.7835H308.956Z" fill="#FAC200"/>
<path d="M267.779 53.6257H253.113L245.781 66.3284L253.113 79.0311H267.779L275.112 66.3284L267.779 53.6257ZM263.432 71.5027H257.453L254.46 66.3209L257.453 61.139H263.432L266.425 66.3209L263.432 71.5027Z" fill="#FAC200"/>
<path d="M312.152 53.6257H297.486L290.153 66.3284L297.486 79.0311H312.152L319.485 66.3284L312.152 53.6257ZM307.805 71.5027H301.826L298.832 66.3209L301.826 61.139H307.805L310.798 66.3209L307.805 71.5027Z" fill="#FAC200"/>
<path d="M141.369 60.417H120.16V51.956H141.369V45.3001H149.83V51.956H171.49V60.417H149.83V67.2986L162.577 66.396C166.187 66.396 169.572 66.02 172.731 65.2679V73.6161L145.994 75.7595C134.036 75.7595 124.484 76.2859 117.339 77.3389L115.309 68.201L126.477 68.0882L141.369 67.637V60.417ZM129.974 81.5129C129.674 83.0923 129.448 84.4085 129.298 85.4614C127.944 92.6814 126.064 98.8861 123.657 104.075L115.309 100.465C118.392 94.9753 120.649 88.2817 122.078 80.3848L129.974 81.5129ZM134.036 102.835C134.337 100.277 134.487 96.6298 134.487 91.8917C134.487 87.7552 134.337 84.2581 134.036 81.4001L141.707 80.8361C142.384 84.2205 142.722 87.5296 142.722 90.7636C142.722 96.7803 142.76 100.503 142.835 101.932L134.036 102.835ZM150.281 100.917C149.83 93.1702 148.852 86.5519 147.348 81.0617L154.68 79.9336C156.485 85.7246 157.764 92.0797 158.516 98.9989L150.281 100.917ZM165.849 97.8708L165.285 95.0505C164.834 92.9446 164.27 90.8764 163.593 88.8458L160.547 79.8208L167.203 78.2414C170.361 85.0101 172.43 90.5756 173.407 94.9377L165.849 97.8708ZM188.75 49.8126V0.400604H198.677V19.2403H218.871V28.491H198.677V49.8126H214.697V104.188H205.108V96.4042H185.817V104.188H176.228V49.8126H188.75ZM205.108 58.9504H185.817V87.2664H205.108V58.9504Z" fill="#FAC200"/>
<path d="M157.538 0.836823H133.096L120.874 22.008L133.096 43.1792H157.538L169.76 22.008L157.538 0.836823ZM153.199 35.6583H137.443L129.561 22.008L137.443 8.35766H153.199L161.081 22.008L153.199 35.6583Z" fill="#FAC200"/>
<path d="M140.616 18.4281H136.48L134.412 22.008L136.48 25.5879H140.616L142.685 22.008L140.616 18.4281Z" fill="#FAC200"/>
<path d="M154.154 18.4281H150.017L147.949 22.008L150.017 25.5879H154.154L156.222 22.008L154.154 18.4281Z" fill="#FAC200"/>
</svg>
